<svg width="200" height="200" viewBox="0 0 18 21" fill="none" xmlns="http://www.w3.org/2000/svg">
<rect x="0.547974" y="2.46037" width="12.964" height="9.38488" rx="0.711342" fill="#263238"/>
<rect x="6.84167" y="2.03535" width="0.377163" height="18.5289" rx="0.170198" fill="#263238"/>
<path d="M6.62605 20.1892H7.43329C7.60787 20.1892 7.7494 20.3299 7.7494 20.5036V20.542C7.7494 20.5479 7.74704 20.5536 7.74284 20.5578C7.73864 20.5619 7.73295 20.5643 7.72701 20.5643H6.33232C6.31996 20.5643 6.30994 20.5543 6.30994 20.542V20.5036C6.30994 20.3299 6.45146 20.1892 6.62605 20.1892V20.1892Z" fill="#263238"/>
<rect x="10.6249" y="2.22426" width="1.08536" height="0.0674637" fill="#FF7171"/>
<rect x="9.64539" y="2.22426" width="0.331714" height="0.0674637" fill="#FF7171"/>
<rect x="0.596191" y="2.46037" width="12.964" height="9.38488" rx="0.711342" fill="#FF7171"/>
<path opacity="0.7" d="M12.6071 2.79768C12.9461 2.79768 13.2209 3.07253 13.2209 3.41156V10.894C13.2209 11.2331 12.9461 11.5079 12.6071 11.5079H1.5492C1.21017 11.5079 0.935327 11.2331 0.935327 10.894V3.41156C0.935327 3.07253 1.21017 2.79768 1.5492 2.79768L12.6071 2.79768Z" fill="white"/>
<path opacity="0.2" d="M4.50954 7.04051C3.71855 6.96687 2.9243 6.93354 2.12988 6.94066C2.13734 5.86799 2.23367 4.70829 2.31846 3.56747L4.65064 3.71657C4.56042 5.04763 4.47087 6.38274 4.50954 7.04051Z" fill="black"/>
<path d="M4.55434 6.99261C3.76338 6.91863 2.9691 6.88531 2.17468 6.89276C2.18214 5.81941 2.23166 4.70896 2.31646 3.56747L4.69611 3.66732C4.60725 4.99838 4.51771 6.33416 4.55434 6.99261Z" fill="white"/>
<path opacity="0.2" d="M7.67748 9.32549L5.2985 9.42871L5.19946 6.05484L7.53231 6.0002L7.67748 9.32549Z" fill="black"/>
<path d="M5.19897 6.05595L7.57842 5.95305L7.7238 9.27789L5.34436 9.3808L5.19897 6.05595Z" fill="white"/>
<path opacity="0.2" d="M12.9815 9.24523L10.6201 8.93557L11.1126 5.59612L13.419 5.94558L12.9815 9.24523Z" fill="black"/>
<path d="M11.1116 5.59685L13.4728 5.90684L13.0349 9.20621L10.6737 8.89621L11.1116 5.59685Z" fill="white"/>
<path opacity="0.2" d="M4.86363 11.6847C4.4322 11.8196 3.32106 11.8406 2.4894 11.7994C2.37069 10.7605 2.3829 9.59738 2.41275 8.42621L4.7456 8.38776C4.69404 9.19192 4.73407 10.6228 4.86363 11.6847Z" fill="black"/>
<path d="M4.9112 11.6361C4.47909 11.7711 3.36795 11.7913 2.53697 11.7501C2.41913 10.6456 2.37788 9.53433 2.41351 8.42417L4.79317 8.33647C4.74093 9.14334 4.78096 10.5742 4.9112 11.6361Z" fill="white"/>
<path opacity="0.2" d="M10.7144 6.70318L8.33339 6.75513C8.25334 5.64738 8.27641 4.48902 8.30693 3.38194H10.6411C10.6147 4.55919 10.6323 5.68246 10.7144 6.70318Z" fill="black"/>
<path d="M10.7612 6.65324L8.38022 6.70519C8.30062 5.59743 8.27666 4.48833 8.30831 3.37787L10.6893 3.32593C10.6635 4.51059 10.6825 5.63319 10.7612 6.65324Z" fill="white"/>
<path d="M11.5797 19.8117L11.0515 19.6712L11.2396 18.4217L11.7677 18.5622L11.5797 19.8117Z" fill="#FF8B7B"/>
<path d="M16.4651 20.2865H15.9179L15.4919 19.0309H16.0392L16.4651 20.2865Z" fill="#FF8B7B"/>
<path d="M15.8449 20.2237H16.5121C16.5344 20.2238 16.5536 20.2392 16.5584 20.2608L16.6668 20.743C16.6718 20.7668 16.6655 20.7915 16.6499 20.8102C16.6342 20.8289 16.6108 20.8395 16.5864 20.8389C16.3717 20.8356 16.2156 20.8227 15.9451 20.8227C15.7788 20.8227 15.2772 20.8403 15.0483 20.8403C14.8193 20.8403 14.7886 20.6154 14.8827 20.5945C15.3038 20.5033 15.6214 20.3777 15.7563 20.2568C15.7809 20.2356 15.8123 20.2238 15.8449 20.2237V20.2237Z" fill="#263238"/>
<path d="M11.0719 19.6118L11.6484 19.7651C11.67 19.771 11.6846 19.7909 11.6838 19.813L11.662 20.3061C11.6613 20.3303 11.6493 20.3527 11.6296 20.367C11.6099 20.3813 11.5846 20.3857 11.5612 20.379C11.3567 20.3203 11.0562 20.2277 10.7945 20.1582C10.4885 20.0771 10.22 20.0231 9.86156 19.9279C9.64485 19.8704 9.64349 19.6368 9.73958 19.6415C10.1771 19.6618 10.5171 19.7421 10.9335 19.6185C10.9781 19.6035 11.026 19.6011 11.0719 19.6118Z" fill="#263238"/>
<path d="M13.9 4.12101C13.7194 4.34592 13.532 4.58771 13.3548 4.82477C13.1777 5.06183 13.0073 5.307 12.8505 5.55284C12.7722 5.67509 12.7006 5.79936 12.6318 5.92295L12.4437 6.28969L12.428 6.32278C12.428 6.32616 12.4239 6.32886 12.4233 6.32819C12.4223 6.32011 12.4223 6.31195 12.4233 6.30387C12.4232 6.28298 12.4209 6.26216 12.4164 6.24174C12.4141 6.2305 12.4109 6.21944 12.4069 6.20864C12.4069 6.20189 12.4021 6.19514 12.3994 6.18838C12.396 6.17886 12.3919 6.16961 12.3871 6.16069C12.375 6.13802 12.3603 6.11674 12.3435 6.0972C12.3198 6.07053 12.292 6.04774 12.2611 6.02967C12.2298 6.0117 12.1957 5.99893 12.1602 5.99184C12.1337 5.98698 12.1067 5.98517 12.0798 5.98644C12.0492 5.98786 12.019 5.99425 11.9905 6.00535C11.9705 6.01219 11.9517 6.02198 11.9346 6.03439C11.9176 6.04723 11.9183 6.04925 11.9176 6.0506C11.9169 6.05195 11.9217 6.0506 11.9258 6.0506C11.95 6.03427 11.9728 6.01597 11.9939 5.9959C12.0198 5.97361 12.0457 5.94929 12.0716 5.92363C12.1772 5.823 12.2863 5.71223 12.4001 5.6089L12.7442 5.83043C12.6891 5.98235 12.6225 6.12999 12.5452 6.27213C12.5032 6.35316 12.4534 6.43005 12.3967 6.50176C12.3862 6.5147 12.3751 6.5271 12.3633 6.53891C12.3444 6.55848 12.3237 6.57613 12.3013 6.59159C12.2759 6.60905 12.2484 6.62335 12.2195 6.63414C12.1862 6.64638 12.1513 6.65367 12.1159 6.65575C12.0867 6.65712 12.0574 6.65508 12.0287 6.64967C11.9907 6.64232 11.9543 6.62862 11.921 6.60915C11.8881 6.59008 11.8584 6.56591 11.8331 6.53756C11.8148 6.5168 11.7988 6.49416 11.7854 6.47002C11.7806 6.45989 11.7752 6.44908 11.7711 6.43895L11.7622 6.41531C11.7568 6.39775 11.7541 6.38695 11.7513 6.37479C11.7452 6.34502 11.7424 6.31466 11.7432 6.28429C11.7436 6.25715 11.7458 6.23007 11.75 6.20324C11.75 6.18365 11.7554 6.16812 11.7581 6.15326C11.7643 6.12354 11.7697 6.09923 11.7752 6.07559C11.7977 5.98306 11.8215 5.90539 11.8488 5.82705C11.876 5.7487 11.9115 5.67036 11.9462 5.59539C12.0144 5.4441 12.0893 5.29822 12.1684 5.15774C12.3253 4.87887 12.4968 4.60834 12.6822 4.34727C12.7735 4.21827 12.8676 4.09062 12.9644 3.96567C13.0611 3.84073 13.1593 3.71983 13.2676 3.59421L13.9 4.12101Z" fill="#FF8B7B"/>
<path d="M14.1972 3.7232C14.3144 4.22772 13.1961 5.51974 13.1961 5.51974L12.193 4.79167C12.4157 4.37308 12.683 3.97933 12.9903 3.61717C13.4496 3.10252 14.0684 3.16871 14.1972 3.7232Z" fill="#FF7171"/>
<path opacity="0.2" d="M14.1972 3.7232C14.3144 4.22772 13.1961 5.51974 13.1961 5.51974L12.193 4.79167C12.4157 4.37308 12.683 3.97933 12.9903 3.61717C13.4496 3.10252 14.0684 3.16871 14.1972 3.7232Z" fill="black"/>
<path opacity="0.2" d="M11.2395 18.4217L11.1421 19.066L11.6709 19.2065L11.7677 18.5622L11.2395 18.4217Z" fill="black"/>
<path opacity="0.2" d="M16.0392 19.0316H15.4919L15.7121 19.6786H16.2593L16.0392 19.0316Z" fill="black"/>
<path d="M16.6443 3.64756C15.9321 5.66833 15.9192 7.8566 15.8394 8.2956C15.4142 8.23954 13.8127 8.02544 12.9398 7.9086C12.7435 4.80586 13.6035 3.26867 13.6035 3.26867C13.6035 3.26867 13.793 3.24368 14.0492 3.23287C14.1296 3.23287 14.2162 3.22747 14.3061 3.22815C14.3559 3.22815 14.4063 3.22815 14.4574 3.23152C14.8712 3.26392 15.2828 3.31985 15.6902 3.39902C15.7672 3.4132 15.8456 3.42941 15.9212 3.4463C15.9969 3.46318 16.0575 3.47939 16.1257 3.49628C16.418 3.56989 16.6443 3.64756 16.6443 3.64756Z" fill="#FF7171"/>
<path opacity="0.2" d="M16.6443 3.64756C15.9321 5.66833 15.9192 7.8566 15.8394 8.2956C15.4142 8.23954 13.8127 8.02544 12.9398 7.9086C12.7435 4.80586 13.6035 3.26867 13.6035 3.26867C13.6035 3.26867 13.793 3.24368 14.0492 3.23287C14.1296 3.23287 14.2162 3.22747 14.3061 3.22815C14.3559 3.22815 14.4063 3.22815 14.4574 3.23152C14.8712 3.26392 15.2828 3.31985 15.6902 3.39902C15.7672 3.4132 15.8456 3.42941 15.9212 3.4463C15.9969 3.46318 16.0575 3.47939 16.1257 3.49628C16.418 3.56989 16.6443 3.64756 16.6443 3.64756Z" fill="black"/>
<path opacity="0.2" d="M15.9779 4.57826C15.8627 4.88286 15.9527 5.72643 16.0788 6.01414C16.1237 5.71292 16.1789 5.39684 16.2484 5.07265L15.9779 4.57826Z" fill="black"/>
<path d="M12.4055 5.56974L12.8389 5.16451L13.1211 5.79802C12.9608 5.96072 12.7126 6.00172 12.5077 5.89933L12.4055 5.56974Z" fill="#FF8B7B"/>
<path d="M13.1572 4.95375L13.3739 5.51432L13.1211 5.79461L12.839 5.1611L13.1572 4.95375Z" fill="#FF8B7B"/>
<path d="M15.7549 2.00432C15.6234 2.38726 15.4483 3.0971 15.6902 3.3963C15.4455 3.58 15.13 3.78735 14.6571 3.74075C14.1841 3.69414 14.3102 3.38414 14.4574 3.2315C14.914 3.18625 14.9467 2.85936 14.9113 2.54328L15.7549 2.00432Z" fill="#FF8B7B"/>
<path d="M14.3737 3.12885C14.3737 3.02214 14.8166 2.93232 14.8337 3.03362C14.8507 3.13493 14.6974 3.1687 14.7458 3.30378C14.7942 3.43886 15.2405 3.45237 15.4191 3.26123C15.5376 3.13358 15.5751 3.00526 15.7257 3.08968C15.8763 3.1741 16.0576 3.2923 15.9581 3.47803C15.8586 3.66376 15.2971 4.10277 14.786 3.98998C14.2749 3.87719 14.1324 3.605 14.2319 3.48681C14.3185 3.38671 14.3684 3.26058 14.3737 3.12885Z" fill="#FF7171"/>
<path opacity="0.2" d="M15.4108 2.22452L14.9113 2.5433C14.9209 2.61673 14.9239 2.69087 14.9201 2.76483C15.1232 2.75653 15.3087 2.64802 15.4142 2.47576C15.4714 2.36703 15.4523 2.24343 15.4108 2.22452Z" fill="black"/>
<path d="M15.8374 1.32896C15.7891 1.86522 15.7877 2.1813 15.5062 2.44943C15.083 2.85466 14.4213 2.58451 14.3075 2.04825C14.2053 1.56264 14.3021 0.765006 14.8377 0.569143C15.0776 0.478561 15.3478 0.517692 15.5515 0.672536C15.7553 0.827381 15.8635 1.07581 15.8374 1.32896Z" fill="#FF8B7B"/>
<path d="M15.879 0.900076C15.481 0.870359 15.4476 1.55521 15.7768 1.84968C16.1748 1.69501 16.7309 0.960186 15.879 0.900076Z" fill="#263238"/>
<path d="M15.4851 1.00679C15.252 0.642083 14.8036 1.22022 14.5821 0.821737C14.4493 0.581974 14.2223 0.841999 14.084 0.698141C13.9456 0.554283 14.1596 0.167959 14.3041 0.133514C14.223 0.22064 14.2073 0.531995 14.4506 0.378006C14.6939 0.224017 14.8684 0.0646246 15.1662 0.323299C15.464 0.581974 15.7754 0.061923 16.0487 0.458377C16.2886 0.802826 15.7611 1.44039 15.4851 1.00679Z" fill="#263238"/>
<path d="M15.9355 0.950048C15.8716 0.949815 15.8081 0.939557 15.7475 0.919656C15.7341 0.915552 15.7266 0.901492 15.7308 0.88825C15.7349 0.875008 15.7491 0.8676 15.7624 0.871703C15.9369 0.926409 16.1066 0.897368 16.1843 0.800111C16.2449 0.724468 16.2402 0.620458 16.1727 0.507667C16.1655 0.495731 16.1695 0.48031 16.1816 0.473223C16.1936 0.466135 16.2092 0.470066 16.2163 0.482003C16.2947 0.611678 16.2974 0.739326 16.2245 0.831179C16.1516 0.912481 16.0451 0.956268 15.9355 0.950048Z" fill="#263238"/>
<path d="M16.065 1.92801C15.9888 2.04021 15.871 2.11811 15.7372 2.14481C15.5594 2.17791 15.4858 2.01716 15.5478 1.85845C15.6037 1.71594 15.7638 1.52683 15.9362 1.56465C16.1086 1.60247 16.157 1.78888 16.065 1.92801Z" fill="#FF8B7B"/>
<path d="M10.9473 18.8736L11.8414 19.1113C11.8414 19.1113 12.6925 15.9869 12.9617 14.316C13.0435 13.8088 13.2261 13.1064 13.4469 12.3574C13.725 11.4118 14.0637 10.3934 14.3383 9.59572C14.6286 8.75553 14.846 8.16186 14.846 8.16186L12.9379 7.90724C12.9379 7.90724 11.4856 12.3196 11.3221 13.9662C11.1538 15.6796 10.9473 18.8736 10.9473 18.8736Z" fill="#263238"/>
<path opacity="0.2" d="M13.4468 12.3587C13.7248 11.4132 14.0635 10.3947 14.3382 9.59707L14.1692 9.1601C13.656 9.6896 13.4155 11.4125 13.4468 12.3587Z" fill="black"/>
<path d="M13.9681 8.04639C13.9681 8.04639 13.874 12.691 14.0022 14.2742C14.1432 16.0086 15.4544 19.553 15.4544 19.553H16.4562C16.4562 19.553 15.7876 16.3111 15.5832 14.6227C15.3494 12.7046 15.8394 8.29425 15.8394 8.29425L13.9681 8.04639Z" fill="#263238"/>
<path d="M15.3346 19.5746H16.5142V19.2254L15.1956 19.2025L15.3346 19.5746Z" fill="#FF7171"/>
<path d="M10.8293 18.8641L11.8952 19.1478L11.9879 18.8067L10.8607 18.4886L10.8293 18.8641Z" fill="#FF7171"/>
<path d="M15.0116 1.45659C15.0116 1.49982 14.9863 1.53494 14.957 1.53426C14.9277 1.53359 14.9059 1.49711 14.9073 1.45321C14.9087 1.40931 14.9332 1.37487 14.9618 1.37554C14.9904 1.37622 15.0129 1.41269 15.0116 1.45659Z" fill="#263238"/>
<path d="M14.5134 1.44038C14.5134 1.48428 14.4875 1.51872 14.4589 1.51805C14.4303 1.51737 14.4078 1.4809 14.4085 1.43768C14.4091 1.39445 14.4344 1.35866 14.463 1.36001C14.4916 1.36136 14.5141 1.3985 14.5134 1.44038Z" fill="#263238"/>
<path d="M14.6707 1.46877C14.6145 1.60087 14.54 1.72454 14.4492 1.83618C14.5089 1.88143 14.5858 1.89801 14.6591 1.88143L14.6707 1.46877Z" fill="#FF5652"/>
<path d="M14.8418 2.00365C14.9414 1.99527 15.0329 1.94636 15.0947 1.86857C15.0993 1.86363 15.0993 1.85595 15.0947 1.85101C15.0918 1.84896 15.0882 1.84816 15.0847 1.8488C15.0813 1.84944 15.0782 1.85146 15.0763 1.85439C15.0048 1.94115 14.8953 1.98822 14.7826 1.98068C14.779 1.9805 14.7755 1.98177 14.773 1.98419C14.7704 1.98662 14.7689 1.98999 14.7689 1.99352C14.7689 2.00035 14.7743 2.00599 14.7812 2.00635C14.8014 2.00697 14.8217 2.00607 14.8418 2.00365Z" fill="#263238"/>
<path d="M15.1696 1.30126C15.174 1.30082 15.1783 1.29918 15.1819 1.29653C15.1875 1.29259 15.1913 1.28661 15.1924 1.27989C15.1936 1.27318 15.192 1.26629 15.188 1.26074C15.1411 1.19226 15.0636 1.15049 14.9801 1.14862C14.9733 1.14897 14.9668 1.15201 14.9622 1.15708C14.9576 1.16215 14.9552 1.16883 14.9556 1.17564C14.9558 1.18239 14.9587 1.18878 14.9637 1.19336C14.9687 1.19794 14.9754 1.20032 14.9822 1.19995C15.0483 1.20213 15.1092 1.23585 15.1457 1.29045C15.1512 1.29796 15.1603 1.30207 15.1696 1.30126Z" fill="#263238"/>
<path d="M14.3055 1.26612C14.314 1.26534 14.3215 1.26022 14.3253 1.25261C14.3539 1.19336 14.4098 1.15156 14.4752 1.1405C14.4879 1.13755 14.4964 1.12567 14.4951 1.11278C14.4937 1.0999 14.4828 1.09006 14.4697 1.08984C14.3872 1.10254 14.3162 1.15452 14.2796 1.22897C14.2763 1.23495 14.2756 1.242 14.2776 1.2485C14.2797 1.25501 14.2844 1.2604 14.2905 1.26342C14.2951 1.26597 14.3003 1.26692 14.3055 1.26612Z" fill="#263238"/>
<path fill-rule="evenodd" clip-rule="evenodd" d="M15.8075 20.3056C15.7606 20.3179 15.7127 20.3248 15.6644 20.3262C15.627 20.3287 15.5898 20.3182 15.5588 20.2964C15.5394 20.2785 15.5295 20.252 15.5322 20.2252C15.5324 20.2091 15.541 20.1944 15.5547 20.1868C15.6129 20.1557 15.7812 20.2616 15.8095 20.2794C15.8103 20.2799 15.811 20.2803 15.8116 20.2807C15.8157 20.2838 15.8178 20.289 15.817 20.2942C15.8164 20.2997 15.8126 20.3042 15.8075 20.3056ZM15.7665 20.2871C15.7676 20.2869 15.7687 20.2867 15.7698 20.2864V20.2893C15.7687 20.2886 15.7676 20.2879 15.7665 20.2871ZM15.5756 20.2758C15.6052 20.3018 15.6748 20.3056 15.7665 20.2871C15.6953 20.2415 15.5996 20.1942 15.5661 20.211C15.5606 20.2145 15.5575 20.2208 15.5579 20.2274C15.5553 20.2457 15.562 20.264 15.5756 20.2758Z" fill="#FF7171"/>
<path fill-rule="evenodd" clip-rule="evenodd" d="M15.8123 20.2993C15.8098 20.3 15.8072 20.3 15.8048 20.2993L15.7987 20.3C15.7421 20.2696 15.6331 20.1507 15.6447 20.0899C15.6486 20.0706 15.6657 20.0568 15.6855 20.0568C15.7055 20.0539 15.7257 20.0598 15.7407 20.0731C15.8041 20.1244 15.8177 20.2811 15.8177 20.2878C15.8184 20.2924 15.8163 20.2969 15.8123 20.2993ZM15.7238 20.0927C15.7157 20.0852 15.7049 20.0811 15.6938 20.0812H15.6884C15.6693 20.0832 15.6693 20.0913 15.6693 20.0947C15.6625 20.1271 15.732 20.2197 15.7885 20.2622C15.7849 20.2005 15.7623 20.1413 15.7238 20.0927Z" fill="#FF7171"/>
<path fill-rule="evenodd" clip-rule="evenodd" d="M11.0113 19.6624C11.0094 19.6669 11.0052 19.6699 11.0004 19.6705L10.9984 19.6712C10.9084 19.6651 10.7517 19.6469 10.7074 19.5793C10.694 19.5593 10.6915 19.5341 10.7006 19.5118C10.7048 19.4982 10.7159 19.4877 10.7299 19.4841C10.8035 19.4659 10.9875 19.6293 11.0079 19.6482C11.0119 19.6518 11.0133 19.6574 11.0113 19.6624ZM10.9617 19.6436C10.8881 19.5795 10.7852 19.5086 10.7416 19.5086L10.7362 19.5113C10.7306 19.5127 10.7264 19.5172 10.7253 19.5227C10.719 19.5371 10.7205 19.5537 10.7294 19.5666C10.7539 19.6038 10.8397 19.6315 10.9617 19.6436Z" fill="#FF7171"/>
<path fill-rule="evenodd" clip-rule="evenodd" d="M11.0038 19.6705H11.0004C10.9971 19.6708 10.9937 19.6701 10.9908 19.6685C10.9329 19.6226 10.8389 19.4767 10.8648 19.42C10.8709 19.4065 10.8852 19.3923 10.9206 19.3977C10.9467 19.4016 10.9699 19.416 10.9847 19.4375C11.0319 19.5025 11.0162 19.6266 11.0126 19.6553C11.0122 19.6585 11.012 19.6605 11.012 19.6611C11.0111 19.6654 11.008 19.669 11.0038 19.6705ZM10.9164 19.4208H10.9028C10.8931 19.4214 10.8899 19.4257 10.8888 19.4271C10.8887 19.4273 10.8886 19.4274 10.8885 19.4275C10.8728 19.4626 10.9348 19.5741 10.9893 19.6301C10.9992 19.569 10.9902 19.5064 10.9634 19.4505C10.9528 19.4344 10.9357 19.4236 10.9164 19.4208Z" fill="#FF7171"/>
<path d="M16.7867 4.06631C16.8657 4.41819 16.9325 4.76805 16.9911 5.12195C17.0497 5.47585 17.1022 5.83043 17.1431 6.18974L17.1574 6.32482L17.1656 6.40857C17.1718 6.47416 17.1658 6.54032 17.1479 6.60376C17.1236 6.69193 17.0747 6.77153 17.0068 6.83339C16.95 6.88393 16.8825 6.9211 16.8092 6.94213C16.7239 6.96594 16.6348 6.97305 16.5468 6.96306C16.4325 6.95061 16.32 6.92523 16.2115 6.88742C16.1141 6.85433 16.0241 6.81988 15.9389 6.77868C15.7679 6.70127 15.6012 6.61493 15.4394 6.52001C15.2792 6.42613 15.1259 6.32955 14.9733 6.21946L15.1675 5.86083C15.498 5.97429 15.8347 6.09586 16.1577 6.18366C16.2381 6.20595 16.3178 6.22486 16.3935 6.23837C16.4567 6.25268 16.5214 6.25948 16.5863 6.25863C16.6061 6.25863 16.6218 6.24985 16.5904 6.25525C16.5599 6.26306 16.5319 6.27866 16.5093 6.30051C16.4739 6.33159 16.448 6.37181 16.4343 6.41667C16.4286 6.43717 16.4252 6.45824 16.4241 6.47948C16.4241 6.49097 16.4241 6.47273 16.4207 6.46328L16.4146 6.43086L16.3901 6.30253C16.3233 5.95943 16.2551 5.61521 16.1856 5.26986C16.1175 4.92474 16.0452 4.57759 15.9812 4.23381L16.7867 4.06631Z" fill="#FF8B7B"/>
<path d="M16.8269 3.78063C17.184 4.15952 17.2161 5.32322 17.2161 5.32322L16.1823 5.80613C16.1823 5.80613 15.847 5.06657 15.8361 4.39726C15.8252 3.63812 16.4692 3.39903 16.8269 3.78063Z" fill="#FF7171"/>
<path opacity="0.2" d="M16.8269 3.78063C17.184 4.15952 17.2161 5.32322 17.2161 5.32322L16.1823 5.80613C16.1823 5.80613 15.847 5.06657 15.8361 4.39726C15.8252 3.63812 16.4692 3.39903 16.8269 3.78063Z" fill="black"/>
<path d="M13.121 5.1949C13.1151 5.19485 13.1093 5.19346 13.104 5.19084C13.0878 5.18119 13.0824 5.1605 13.0917 5.14424L13.6369 4.21153C13.6472 4.19752 13.6665 4.19349 13.6816 4.2022C13.6967 4.2109 13.7027 4.22952 13.6955 4.2453L13.1538 5.17801C13.147 5.18938 13.1343 5.19594 13.121 5.1949Z" fill="#263238"/>
<path d="M14.8124 7.78906L12.7523 7.49188C12.6654 7.47879 12.5984 7.40906 12.5895 7.32236L12.4532 4.50396C12.4511 4.46586 12.4673 4.42901 12.4967 4.40446C12.5262 4.3799 12.5656 4.37048 12.6031 4.37901L14.6632 4.67551C14.7502 4.68928 14.8171 4.75895 14.8268 4.84571L14.9596 7.66411C14.9615 7.70163 14.9457 7.73787 14.9169 7.7623C14.8881 7.78674 14.8496 7.79661 14.8124 7.78906Z" fill="white"/>
<path d="M14.7662 7.81743L12.7061 7.5189C12.619 7.50586 12.5518 7.43619 12.5425 7.34938L12.4096 4.53098C12.4074 4.49294 12.4233 4.45606 12.4527 4.43147C12.4821 4.40687 12.5214 4.39745 12.5589 4.40603L14.619 4.70253C14.7063 4.71564 14.7736 4.78566 14.7825 4.87273L14.9188 7.69045C14.9221 7.72959 14.906 7.76788 14.8757 7.79313C14.8453 7.81838 14.8045 7.82744 14.7662 7.81743Z" fill="#263238"/>
<path d="M15.2071 5.87096L14.7226 5.6008L14.666 6.29105C14.666 6.29105 15.1294 6.43018 15.231 6.19447L15.2071 5.87096Z" fill="#FF8B7B"/>
<path d="M14.1829 5.72439L14.251 6.24039L14.666 6.29172L14.7226 5.60147L14.1829 5.72439Z" fill="#FF8B7B"/>
</svg>
