<svg width="200" height="200" viewBox="0 0 23 21" fill="none" xmlns="http://www.w3.org/2000/svg">
<rect x="0.932861" y="9.66411" width="21.1606" height="0.760787" fill="#407BFF"/>
<rect opacity="0.3" x="0.932861" y="9.66411" width="5.66337" height="0.760787" fill="white"/>
<path d="M6.6865 10.4249H6.19385L6.4517 19.96H6.6865H6.92131L7.17978 10.4249H6.6865Z" fill="#407BFF"/>
<path opacity="0.3" d="M6.45166 19.96H6.68646V10.6296L6.2019 10.7182L6.45166 19.96Z" fill="white"/>
<path d="M2.01719 10.4249H1.52454L1.78239 19.96H2.01719H2.252L2.50985 10.4249H2.01719Z" fill="#407BFF"/>
<path opacity="0.3" d="M1.78236 19.96H2.01717V10.6296L1.53198 10.7182L1.78236 19.96Z" fill="white"/>
<path d="M21.009 10.4249H20.5164L20.7742 19.96H21.009H21.2438L21.5023 10.4249H21.009Z" fill="#407BFF"/>
<path opacity="0.3" d="M20.7743 19.96H21.0091V10.6296L20.5245 10.7182L20.7743 19.96Z" fill="white"/>
<path d="M16.3397 10.4249H15.847L16.1049 19.96H16.3397H16.5745L16.8324 10.4249H16.3397Z" fill="#407BFF"/>
<path opacity="0.3" d="M16.105 19.96H16.3398V10.6296L15.8552 10.7182L16.105 19.96Z" fill="white"/>
<path d="M10.9772 5.59119H5.94598C5.86316 5.58791 5.78377 5.62452 5.7324 5.6897C5.68103 5.75488 5.66388 5.84075 5.68626 5.92072L6.35642 9.12551C6.40074 9.31175 6.56291 9.44598 6.75379 9.45442H11.7887C11.8714 9.45764 11.9506 9.4211 12.002 9.35609C12.0533 9.29107 12.0706 9.2054 12.0484 9.12551L11.3777 5.92072C11.3333 5.73316 11.1694 5.59834 10.9772 5.59119Z" fill="#263238"/>
<path d="M6.79735 9.27153C6.66861 9.26283 6.56005 9.17217 6.52829 9.04686L5.85812 5.84206C5.84651 5.79911 5.85498 5.75319 5.88117 5.71724C5.90833 5.68646 5.94796 5.6697 5.98892 5.67168H11.0239C11.1526 5.68039 11.2612 5.77104 11.2929 5.89636L11.9631 9.10115C11.9747 9.14411 11.9662 9.19003 11.94 9.22597C11.913 9.25698 11.8733 9.27379 11.8323 9.27153H6.79735Z" fill="white"/>
<path opacity="0.4" d="M10.5961 9.01503L9.96077 5.97625C9.95354 5.93983 9.96287 5.90207 9.98623 5.87324C10.0096 5.8444 10.0445 5.82749 10.0816 5.82709H10.8987C10.9571 5.82754 11.0073 5.86852 11.0196 5.9257L11.6549 8.96198C11.6621 8.9984 11.6528 9.03616 11.6294 9.06499C11.606 9.09383 11.5711 9.11074 11.534 9.11114H10.7169C10.6593 9.11096 10.6093 9.07121 10.5961 9.01503Z" fill="#407BFF"/>
<path d="M6.27728 6.09299L6.24988 5.9613H7.25886L7.28626 6.09299H6.27728Z" fill="#407BFF"/>
<path d="M6.74322 6.42L6.71582 6.28831H8.48403L8.51206 6.42H6.74322Z" fill="#EBEBEB"/>
<path d="M6.83662 6.74642L6.80859 6.61473H8.79105L8.81846 6.74642H6.83662Z" fill="#EBEBEB"/>
<path d="M6.92938 7.07344L6.90198 6.94176H8.49766L8.52569 7.07344H6.92938Z" fill="#EBEBEB"/>
<path d="M6.5843 7.60332L6.55627 7.47163H7.19467L7.22208 7.60332H6.5843Z" fill="#407BFF"/>
<path d="M7.04962 7.92974L7.02222 7.79805H7.79951L7.82753 7.92974H7.04962Z" fill="#EBEBEB"/>
<path d="M8.01375 7.92974L7.98572 7.79805H8.76363L8.79103 7.92974H8.01375Z" fill="#EBEBEB"/>
<path d="M7.14313 8.25676L7.11572 8.12508H9.74406L9.77146 8.25676H7.14313Z" fill="#EBEBEB"/>
<path d="M7.2359 8.58318L7.2085 8.45149H9.21276L9.24016 8.58318H7.2359Z" fill="#EBEBEB"/>
<path d="M13.3277 9.43507H6.70328C6.52266 9.43507 6.40557 9.53805 6.44356 9.66412H13.725C13.6877 9.53805 13.5083 9.43507 13.3277 9.43507Z" fill="#263238"/>
<path opacity="0.1" d="M4.52661 4.78109L3.8907 1.74418C3.88368 1.70785 3.89311 1.67027 3.91644 1.64159C3.93977 1.61291 3.9746 1.59608 4.01153 1.59564H9.15609C9.21425 1.59603 9.26441 1.6367 9.27691 1.69363L9.91282 4.72804C9.92005 4.76446 9.91072 4.80222 9.88736 4.83105C9.86401 4.85988 9.82905 4.8768 9.79199 4.8772H4.64744C4.58982 4.87702 4.53986 4.83727 4.52661 4.78109Z" fill="#407BFF"/>
<path d="M6.35513 1.6955H5.27514L5.25085 1.5788H6.33084L6.35513 1.6955Z" fill="#407BFF"/>
<path opacity="0.4" d="M6.17946 1.88151H5.74597L5.72168 1.7648H6.15517L6.17946 1.88151Z" fill="#407BFF"/>
<path opacity="0.4" d="M6.90082 1.88151H6.23315L6.20886 1.7648H6.87653L6.90082 1.88151Z" fill="#407BFF"/>
<path opacity="0.4" d="M7.19163 2.06686H5.78467L5.76038 1.95015H7.16797L7.19163 2.06686Z" fill="#407BFF"/>
<path opacity="0.4" d="M7.01284 2.25285H5.82324L5.79895 2.13614H6.98855L7.01284 2.25285Z" fill="#407BFF"/>
<path opacity="0.4" d="M7.80204 4.22565H7.04468L7.06897 4.34173H7.82633L7.80204 4.22565Z" fill="#407BFF"/>
<path d="M6.85779 3.97102H5.74853L5.72424 3.85431H6.8335L6.85779 3.97102Z" fill="#407BFF"/>
<path opacity="0.4" d="M7.30374 4.41101H6.27234L6.29663 4.52772H7.32803L7.30374 4.41101Z" fill="#407BFF"/>
<path opacity="0.4" d="M6.99112 4.22565H6.23376L6.25805 4.34173H7.01541L6.99112 4.22565Z" fill="#407BFF"/>
<path opacity="0.4" d="M7.70991 4.03966H6.19519L6.21948 4.15637H7.7342L7.70991 4.03966Z" fill="#407BFF"/>
<path d="M6.3172 0.829249H5.09521L5.07092 0.713165H6.29291L6.3172 0.829249Z" fill="#407BFF"/>
<path opacity="0.4" d="M6.92068 1.26987H5.57288L5.59717 1.38658H6.94434L6.92068 1.26987Z" fill="#407BFF"/>
<path opacity="0.4" d="M6.65103 1.0845H5.5343L5.55859 1.20059H6.67532L6.65103 1.0845Z" fill="#407BFF"/>
<path opacity="0.4" d="M6.72507 0.898514H5.49561L5.5199 1.01522H6.74936L6.72507 0.898514Z" fill="#407BFF"/>
<path d="M6.30351 2.55489H5.45398L5.42969 2.43819H6.27922L6.30351 2.55489Z" fill="#407BFF"/>
<path opacity="0.4" d="M7.6375 2.99489H5.97766L6.00195 3.1116H7.66116L7.6375 2.99489Z" fill="#407BFF"/>
<path opacity="0.4" d="M6.62669 2.80954H5.93909L5.96338 2.92625H6.65098L6.62669 2.80954Z" fill="#407BFF"/>
<path opacity="0.4" d="M7.37278 2.80954H6.68518L6.70947 2.92625H7.39707L7.37278 2.80954Z" fill="#407BFF"/>
<path opacity="0.4" d="M7.41523 2.62355H5.90051L5.9248 2.74026H7.4389L7.41523 2.62355Z" fill="#407BFF"/>
<path opacity="0.4" d="M7.41203 3.55222H6.09351L6.1178 3.6683H7.43632L7.41203 3.55222Z" fill="#407BFF"/>
<path opacity="0.4" d="M6.43872 3.36627H6.05505L6.07934 3.48298H6.46238L6.43872 3.36627Z" fill="#407BFF"/>
<path opacity="0.4" d="M7.03843 3.36627H6.49097L6.51526 3.48298H7.06272L7.03843 3.36627Z" fill="#407BFF"/>
<path opacity="0.4" d="M7.53107 3.18088H6.01636L6.04065 3.29696H7.55537L7.53107 3.18088Z" fill="#407BFF"/>
<path opacity="0.4" d="M8.72388 3.14967H8.18139L8.1571 3.03296H8.70021L8.72388 3.14967Z" fill="#407BFF"/>
<path opacity="0.4" d="M9.62685 3.14967H8.79101L8.76672 3.03296H9.60256L9.62685 3.14967Z" fill="#407BFF"/>
<path opacity="0.4" d="M9.98183 3.33566H8.21985L8.19556 3.21895H9.95754L9.98183 3.33566Z" fill="#407BFF"/>
<path opacity="0.4" d="M9.74772 3.52101H8.25854L8.23425 3.4043H9.72343L9.74772 3.52101Z" fill="#407BFF"/>
<path opacity="0.4" d="M10.4148 2.41138H8.72754L8.75183 2.52746H10.4391L10.4148 2.41138Z" fill="#407BFF"/>
<path opacity="0.4" d="M10.0872 2.22539H8.68896L8.71326 2.3421H10.1109L10.0872 2.22539Z" fill="#407BFF"/>
<path d="M9.83431 2.04004H8.29468L8.31897 2.15612H9.8586L9.83431 2.04004Z" fill="#407BFF"/>
<path opacity="0.4" d="M10.4907 4.26372H8.41296L8.43725 4.38043H10.515L10.4907 4.26372Z" fill="#407BFF"/>
<path opacity="0.4" d="M9.23514 4.07834H8.37439L8.39868 4.19442H9.25943L9.23514 4.07834Z" fill="#407BFF"/>
<path opacity="0.4" d="M10.1693 4.07834H9.30859L9.33288 4.19442H10.1936L10.1693 4.07834Z" fill="#407BFF"/>
<path opacity="0.4" d="M10.2317 3.89238H8.33582L8.36011 4.00909H10.256L10.2317 3.89238Z" fill="#407BFF"/>
<path opacity="0.4" d="M10.1793 4.82042H8.52881L8.5531 4.93713H10.2036L10.1793 4.82042Z" fill="#407BFF"/>
<path opacity="0.4" d="M8.97043 4.63507H8.49023L8.51452 4.75178H8.99472L8.97043 4.63507Z" fill="#407BFF"/>
<path opacity="0.4" d="M9.72161 4.63507H9.0365L9.06079 4.75178H9.7459L9.72161 4.63507Z" fill="#407BFF"/>
<path opacity="0.4" d="M10.3482 4.44908H8.45166L8.47595 4.56579H10.3718L10.3482 4.44908Z" fill="#407BFF"/>
<path opacity="0.4" d="M5.29821 4.96457H4.00647L4.03076 5.08128H5.3225L5.29821 4.96457Z" fill="#407BFF"/>
<path opacity="0.4" d="M4.91646 4.77922H3.9679L3.99219 4.8953H4.94013L4.91646 4.77922Z" fill="#407BFF"/>
<path opacity="0.4" d="M5.93098 4.77922H4.98303L5.00732 4.8953H5.95589L5.93098 4.77922Z" fill="#407BFF"/>
<path opacity="0.4" d="M5.82583 4.59323H3.92932L3.95361 4.70994H5.8495L5.82583 4.59323Z" fill="#407BFF"/>
<path d="M20.3301 8.45149H19.5304L19.6238 9.66413H20.2367L20.3301 8.45149Z" fill="#407BFF"/>
<path opacity="0.4" d="M20.3301 8.45149H19.5304L19.6238 9.66413H20.2367L20.3301 8.45149Z" fill="white"/>
<path d="M2.90227 7.60954H4.05201L3.65963 9.66411H2.50989L2.90227 7.60954Z" fill="#263238"/>
<path d="M4.36651 7.0591H2.7428L3.19746 9.66412H4.82117L4.36651 7.0591Z" fill="#407BFF"/>
<path d="M2.64685 7.0591H2.74277L3.19743 9.66412H3.10151L2.64685 7.0591Z" fill="#407BFF"/>
<path opacity="0.3" d="M2.64685 7.0591H2.74277L3.19743 9.66412H3.10151L2.64685 7.0591Z" fill="black"/>
<path d="M3.43099 9.38516L3.07349 7.33746H4.13354L4.49042 9.38516H3.43099Z" fill="white"/>
<path opacity="0.6" d="M4.44001 9.38516L4.08313 7.33746H4.13358L4.49046 9.38516H4.44001Z" fill="#407BFF"/>
<path d="M12.4617 3.77661C12.4848 3.82671 12.4773 3.87994 12.4442 3.89497C12.4112 3.91 12.3663 3.88182 12.3433 3.83235C12.3202 3.78287 12.3283 3.72901 12.3607 3.71398C12.3931 3.69895 12.4386 3.724 12.4617 3.77661Z" fill="#263238"/>
<path d="M12.4817 3.87556C12.4817 3.87556 12.5016 4.2175 12.4406 4.4154C12.5652 4.45736 12.6999 4.35277 12.6999 4.35277L12.4817 3.87556Z" fill="#FF5652"/>
<path d="M12.4679 3.36269C12.4626 3.36709 12.4561 3.36972 12.4492 3.3702C12.3669 3.37239 12.2907 3.41407 12.2441 3.4823C12.2385 3.49279 12.2277 3.4994 12.2159 3.49952C12.204 3.49965 12.1931 3.49329 12.1873 3.48292C12.1815 3.47255 12.1817 3.45983 12.188 3.44974C12.2453 3.36234 12.3414 3.30838 12.4455 3.30507C12.4595 3.3043 12.4724 3.31262 12.4775 3.32572C12.4826 3.33882 12.4787 3.35373 12.4679 3.36269Z" fill="#263238"/>
<path d="M14.2978 3.69899C14.4904 4.36908 14.7055 4.88887 14.968 5.18572C14.968 5.18572 14.973 5.7124 14.0796 5.9629C13.0971 6.23845 13.4736 5.60468 13.4736 5.60468C13.9724 5.326 13.925 4.90516 13.5497 4.74484L14.2978 3.69899Z" fill="#FF8B7B"/>
<path d="M15.1763 5.0573C15.1588 4.81243 15.1358 4.53312 14.9855 4.52561C14.8197 4.51809 13.8596 4.94896 13.6545 5.25269C13.4494 5.55643 13.8502 5.8539 13.8502 5.8539L15.1763 5.0573Z" fill="#263238"/>
<path d="M13.2111 8.8493L12.382 8.82175L12.3969 9.51939C12.3969 9.51939 13.1201 9.44424 13.1519 9.25324L13.2111 8.8493Z" fill="#FF8B7B"/>
<path d="M11.9437 9.16429L11.8564 9.52126L12.397 9.52001L12.382 8.82236L11.9437 9.16429Z" fill="#FF8B7B"/>
<path d="M16.5391 5.95036L16.5216 6.12947C16.516 6.18709 16.5085 6.24345 16.501 6.30044C16.4867 6.41379 16.4686 6.52714 16.4493 6.63987C16.4119 6.86595 16.3632 7.09077 16.3071 7.31685C16.2501 7.54726 16.181 7.77449 16.1002 7.99759C16.0571 8.11219 16.0122 8.2268 15.9586 8.34328C15.9046 8.46547 15.8421 8.5837 15.7716 8.69712C15.7548 8.72655 15.7336 8.75974 15.713 8.7873C15.6924 8.81485 15.6725 8.84992 15.6507 8.87873C15.6288 8.90754 15.6058 8.94136 15.5771 8.97079L15.5366 9.01713C15.5221 9.03423 15.5067 9.05054 15.4904 9.06598C15.3655 9.18891 15.219 9.28763 15.0584 9.35719C14.812 9.46337 14.5505 9.52994 14.2835 9.55446C14.1619 9.56886 14.0416 9.5745 13.9237 9.57763C13.8059 9.58076 13.6881 9.57763 13.5721 9.57137C13.4562 9.56511 13.3414 9.55509 13.2274 9.54131C13.1133 9.52753 13.0023 9.50937 12.8813 9.48495L12.9013 8.83051C13.2994 8.76058 13.6929 8.66647 14.0796 8.54869C14.1656 8.5206 14.2501 8.48799 14.3327 8.451C14.403 8.42118 14.4703 8.38447 14.5335 8.3414C14.5702 8.31917 14.6013 8.28874 14.6245 8.25248L14.6426 8.22367C14.6509 8.21137 14.6586 8.19861 14.6656 8.18547C14.6745 8.17109 14.6826 8.15625 14.6899 8.141C14.698 8.12472 14.7068 8.10969 14.7149 8.09153C14.7881 7.9309 14.8484 7.76462 14.8951 7.59428C14.9462 7.41016 14.9942 7.21853 15.0328 7.02001C15.0715 6.82148 15.1089 6.62108 15.1432 6.4188L15.1906 6.11444L15.2336 5.81822L16.5391 5.95036Z" fill="#407BFF"/>
<path opacity="0.2" d="M16.5391 5.95036L16.5216 6.12947C16.516 6.18709 16.5085 6.24345 16.501 6.30044C16.4867 6.41379 16.4686 6.52714 16.4493 6.63987C16.4119 6.86595 16.3632 7.09077 16.3071 7.31685C16.2501 7.54726 16.181 7.77449 16.1002 7.99759C16.0571 8.11219 16.0122 8.2268 15.9586 8.34328C15.9046 8.46547 15.8421 8.5837 15.7716 8.69712C15.7548 8.72655 15.7336 8.75974 15.713 8.7873C15.6924 8.81485 15.6725 8.84992 15.6507 8.87873C15.6288 8.90754 15.6058 8.94136 15.5771 8.97079L15.5366 9.01713C15.5221 9.03423 15.5067 9.05054 15.4904 9.06598C15.3655 9.18891 15.219 9.28763 15.0584 9.35719C14.812 9.46337 14.5505 9.52994 14.2835 9.55446C14.1619 9.56886 14.0416 9.5745 13.9237 9.57763C13.8059 9.58076 13.6881 9.57763 13.5721 9.57137C13.4562 9.56511 13.3414 9.55509 13.2274 9.54131C13.1133 9.52753 13.0023 9.50937 12.8813 9.48495L12.9013 8.83051C13.2994 8.76058 13.6929 8.66647 14.0796 8.54869C14.1656 8.5206 14.2501 8.48799 14.3327 8.451C14.403 8.42118 14.4703 8.38447 14.5335 8.3414C14.5702 8.31917 14.6013 8.28874 14.6245 8.25248L14.6426 8.22367C14.6509 8.21137 14.6586 8.19861 14.6656 8.18547C14.6745 8.17109 14.6826 8.15625 14.6899 8.141C14.698 8.12472 14.7068 8.10969 14.7149 8.09153C14.7881 7.9309 14.8484 7.76462 14.8951 7.59428C14.9462 7.41016 14.9942 7.21853 15.0328 7.02001C15.0715 6.82148 15.1089 6.62108 15.1432 6.4188L15.1906 6.11444L15.2336 5.81822L16.5391 5.95036Z" fill="black"/>
<path d="M12.8576 6.78263C13.1668 8.12145 13.3408 9.48817 13.377 10.8621H17.0272C17.0471 10.4093 16.9711 7.85603 16.6039 6.01171C16.538 5.67423 16.3395 5.37768 16.0532 5.1891C15.7669 5.00052 15.4171 4.93585 15.0827 5.0097L15.0652 5.01409C14.6095 5.11804 13.9555 5.28588 13.569 5.43305L13.5534 5.43931C13.0187 5.64816 12.721 6.2229 12.8576 6.78263Z" fill="#407BFF"/>
<path opacity="0.2" d="M13.0952 7.95377C13.1239 8.12975 13.1532 8.31637 13.18 8.51176C13.4786 8.19863 13.5734 7.23921 13.5734 7.23921L13.0952 7.95377Z" fill="black"/>
<path d="M10.0628 8.89499L9.23422 8.81734L9.20679 9.51436C9.48588 9.59175 9.78468 9.50706 9.98234 9.29454L10.0628 8.89499Z" fill="#FF8B7B"/>
<path d="M8.84029 9.02275L8.57471 9.50183L9.20937 9.51436L9.2368 8.81734L8.84029 9.02275Z" fill="#FF8B7B"/>
<path d="M14.2274 6.46138C14.17 6.57098 14.1189 6.66805 14.0615 6.76825C14.0042 6.86845 13.9493 6.96615 13.8901 7.06322C13.7729 7.25861 13.6513 7.45024 13.5229 7.64C13.265 8.02858 12.9794 8.3978 12.6682 8.74471C12.5015 8.93147 12.3203 9.10465 12.1264 9.26262C12.1021 9.28329 12.0734 9.30333 12.0466 9.32525C12.0198 9.34717 11.9961 9.3647 11.9562 9.38787C11.9163 9.41105 11.8826 9.43422 11.8465 9.45426C11.8103 9.4743 11.7729 9.49246 11.7361 9.50874C11.5986 9.56871 11.4547 9.61263 11.3072 9.63963C11.0492 9.68331 10.7863 9.68922 10.5266 9.65716C10.405 9.64316 10.2843 9.62225 10.1651 9.59454C10.1056 9.58076 10.047 9.5651 9.98924 9.54757C9.9269 9.53003 9.8764 9.51062 9.80969 9.48494L9.91256 8.83865C10.3041 8.78542 10.7274 8.71715 11.0192 8.58439C11.0839 8.55765 11.1449 8.52249 11.2006 8.4798C11.223 8.46432 11.2439 8.4467 11.2629 8.4272C11.2673 8.42156 11.2866 8.40465 11.301 8.39088C11.3153 8.3771 11.3321 8.36395 11.3477 8.34766C11.4812 8.21483 11.6061 8.07364 11.7218 7.92494C11.9728 7.59968 12.2073 7.2619 12.4244 6.91291C12.5366 6.73568 12.6457 6.55532 12.7548 6.37433L12.9157 6.10254L13.0709 5.83513L14.2274 6.46138Z" fill="#407BFF"/>
<path d="M13.2255 19.5332H12.5435L12.2 17.9456H12.8826L13.2255 19.5332Z" fill="#FF8B7B"/>
<path d="M12.5054 19.3867H13.2722C13.2996 19.3876 13.3231 19.4064 13.3302 19.433L13.4649 20.043C13.4714 20.073 13.4638 20.1044 13.4444 20.1281C13.4249 20.1518 13.3957 20.1652 13.3651 20.1645C13.0977 20.1601 12.9674 20.1444 12.6301 20.1444C12.4225 20.1444 12.1563 20.1657 11.8701 20.1657C11.584 20.1657 11.5459 19.8814 11.6631 19.8557C12.1893 19.7399 12.2242 19.5808 12.3944 19.4286C12.4249 19.4013 12.4645 19.3863 12.5054 19.3867Z" fill="#263238"/>
<g opacity="0.2">
<path d="M12.8832 17.9463H12.2L12.3907 18.8256L13.0603 18.7648L12.8832 17.9463Z" fill="black"/>
</g>
<path d="M14.079 2.8936C14.3284 3.52737 14.5017 3.88622 14.3372 4.34651C14.0878 5.03853 13.2031 5.10867 12.7729 4.56132C12.3864 4.06846 12.0485 3.11467 12.5367 2.5905C12.754 2.35421 13.0777 2.24796 13.3921 2.30972C13.7064 2.37149 13.9664 2.59246 14.079 2.8936Z" fill="#FF8B7B"/>
<path d="M12.8807 3.84301C12.7784 3.98079 12.6999 4.08537 12.6999 4.08537C12.6999 4.08537 12.4898 3.56119 12.5702 3.32071C12.468 3.11718 12.2616 3.41716 12.1837 3.02074C12.1057 2.62432 12.443 2.19846 12.5702 2.11016C12.5833 2.15636 12.5892 2.20431 12.5877 2.25232C12.9313 1.97217 13.3681 1.83361 13.8096 1.86467C13.7727 1.9198 13.7492 1.98287 13.741 2.04879C13.741 2.04879 14.481 2.17404 14.6494 2.59488C14.5898 2.56634 14.527 2.54531 14.4623 2.53226C14.598 2.72764 14.6517 2.96877 14.612 3.2036C14.5583 3.54607 14.5303 3.89212 14.5284 4.2388C14.5353 4.41666 14.0496 4.75672 13.7535 4.39349C13.4574 4.03026 12.8807 3.84301 12.8807 3.84301Z" fill="#263238"/>
<path d="M13.1894 3.70648C13.228 3.8541 13.217 4.0104 13.1582 4.15112C13.079 4.339 12.9163 4.29391 12.8359 4.12983C12.7629 3.98266 12.7162 3.70961 12.8452 3.57872C12.9743 3.44784 13.1407 3.52925 13.1894 3.70648Z" fill="#FF8B7B"/>
<path d="M14.4711 10.8596C14.4711 10.8596 11.3015 12.0144 11.2087 13.5418C11.0366 16.3556 12.1818 18.5832 12.1818 18.5832L13.2317 18.4705C13.2317 18.4705 13.0447 17.5649 12.9057 15.016C12.7305 11.8127 18.1425 15.0912 17.0278 10.8596H14.4711Z" fill="#407BFF"/>
<path opacity="0.5" d="M14.4711 10.8596C14.4711 10.8596 11.3015 12.0144 11.2087 13.5418C11.0366 16.3556 12.1818 18.5832 12.1818 18.5832L13.2317 18.4705C13.2317 18.4705 13.0447 17.5649 12.9057 15.016C12.7305 11.8127 18.1425 15.0912 17.0278 10.8596H14.4711Z" fill="white"/>
<path d="M11.8913 18.1949C11.8864 18.1949 12.0584 18.6633 12.0584 18.6633L13.3676 18.5343L13.3022 18.1085L11.8913 18.1949Z" fill="#407BFF"/>
<path d="M10.2773 19.6115H9.59464L9.39514 18.0233H10.0778L10.2773 19.6115Z" fill="#FF8B7B"/>
<path d="M9.58954 19.386H10.3377C10.3655 19.3857 10.3897 19.405 10.3956 19.4324L10.5316 20.0417C10.5396 20.072 10.533 20.1043 10.5138 20.1289C10.4945 20.1535 10.4648 20.1676 10.4337 20.167C10.165 20.1626 9.77595 20.1475 9.43618 20.1482C9.04092 20.1482 8.96548 20.1701 8.50102 20.1707C8.22047 20.1707 8.14255 19.887 8.25975 19.8576C8.79341 19.7399 8.96424 19.7267 9.42496 19.4405C9.47359 19.4071 9.53066 19.3882 9.58954 19.386Z" fill="#263238"/>
<path opacity="0.2" d="M9.39563 18.0239L9.50411 18.8888L10.1812 18.8424L10.0783 18.0239H9.39563Z" fill="black"/>
<path d="M13.377 10.8596C13.377 10.8596 8.18372 11.3224 8.23983 13.9426C8.29781 16.6681 9.31152 18.5062 9.31152 18.5062H10.3252C10.3252 18.5062 10.1332 17.0921 10.1675 14.4092C10.1775 13.6057 11.7947 13.3402 13.3732 13.2462C14.7373 13.1648 16.0141 12.3839 16.544 11.117L16.6531 10.8596H13.377Z" fill="#407BFF"/>
<path opacity="0.5" d="M13.377 10.8596C13.377 10.8596 8.18372 11.3224 8.23983 13.9426C8.29781 16.6681 9.31152 18.5062 9.31152 18.5062H10.3252C10.3252 18.5062 10.1332 17.0921 10.1675 14.4092C10.1775 13.6057 11.7947 13.3402 13.3732 13.2462C14.7373 13.1648 16.0141 12.3839 16.544 11.117L16.6531 10.8596H13.377Z" fill="white"/>
<path d="M9.07405 18.2325C9.06969 18.2325 9.24799 18.7034 9.24799 18.7034L10.4724 18.6151L10.4007 18.1892L9.07405 18.2325Z" fill="#407BFF"/>
<path d="M14.7405 7.91492L14.0815 10.4657C13.913 11.1191 13.8279 11.7915 13.8284 12.4665V13.652C13.8284 13.9514 14.0478 14.1944 14.319 14.1944H17.6968C17.968 14.1944 18.1874 13.9514 18.1874 13.652V12.4665C18.1872 11.7915 18.2725 11.1191 18.4412 10.4657L19.0228 8.21114C19.1126 7.86482 18.877 7.52226 18.5509 7.52226H15.2118C14.9838 7.52947 14.7897 7.69116 14.7405 7.91492Z" fill="#263238"/>
<path d="M10.5391 12.9594L10.6495 13.5919C10.7081 13.9245 10.9992 14.1944 11.3004 14.1944H15.0553C15.3564 14.1944 15.5541 13.9245 15.4955 13.5919L15.3851 12.9594C15.3184 12.5805 14.9874 12.2737 14.6445 12.2737H11.0423C10.6969 12.2737 10.4731 12.5805 10.5391 12.9594Z" fill="#263238"/>
<path d="M15.4169 14.8294H13.45L13.2579 14.1944H15.6089L15.4169 14.8294Z" fill="#407BFF"/>
<rect x="14.082" y="14.8294" width="0.702614" height="4.72259" fill="#407BFF"/>
<path opacity="0.7" d="M14.7846 19.552H14.082V14.9428L14.7846 15.0148V19.552Z" fill="white"/>
<path opacity="0.7" d="M14.6133 19.552H14.4456V14.9797L14.6133 14.9972V19.552Z" fill="white"/>
<path d="M16.049 20.2822H12.8171C12.7785 20.2819 12.7444 20.2567 12.7325 20.2198C12.7206 20.1828 12.7336 20.1424 12.7647 20.1194L13.2772 19.7436C13.5236 19.5624 13.821 19.4646 14.1263 19.4643H14.7404C15.0456 19.4646 15.3427 19.5625 15.5889 19.7436L16.102 20.1194C16.1332 20.1425 16.1462 20.183 16.1341 20.2201C16.1221 20.2571 16.0878 20.2821 16.049 20.2822Z" fill="#407BFF"/>
</svg>
