<svg width="200" height="200" viewBox="0 0 18 20" fill="none" xmlns="http://www.w3.org/2000/svg">
<path d="M12.8476 4.50259C12.6512 4.30618 12.6512 3.98857 12.8476 3.79216L13.0867 3.55392C13.2838 3.35829 13.6025 3.35829 13.7996 3.55392C13.9952 3.7504 13.9952 4.06727 13.7996 4.26374L13.5599 4.50259C13.3627 4.69749 13.0447 4.69749 12.8476 4.50259Z" fill="#83FFA3"/>
<path opacity="0.4" d="M12.8476 4.50259C12.6512 4.30618 12.6512 3.98857 12.8476 3.79216L13.0867 3.55392C13.2838 3.35829 13.6025 3.35829 13.7996 3.55392C13.9952 3.7504 13.9952 4.06727 13.7996 4.26374L13.5599 4.50259C13.3627 4.69749 13.0447 4.69749 12.8476 4.50259Z" fill="white"/>
<path d="M13.1841 4.16907C12.9306 3.91585 12.9306 3.50598 13.1841 3.25277L13.6525 2.78607C13.9066 2.53349 14.3179 2.53349 14.5721 2.78607C14.8259 3.03914 14.8259 3.44929 14.5721 3.70236L14.1025 4.16907C13.8482 4.42016 13.4384 4.42016 13.1841 4.16907Z" fill="#83FFA3"/>
<path d="M13.8371 3.51605C13.4037 3.08645 12.7035 3.08645 12.2701 3.51605L13.8371 5.07803C14.268 4.64588 14.268 3.9482 13.8371 3.51605Z" fill="#83FFA3"/>
<path d="M14.4728 6.54471C14.4203 6.54471 14.3777 6.50232 14.3777 6.45003C14.3777 6.39774 14.4203 6.35535 14.4728 6.35535C15.4208 6.35535 16.1893 5.58956 16.1893 4.64492C16.1893 3.70028 15.4208 2.9345 14.4728 2.9345C14.4371 2.93736 14.4029 2.92003 14.3841 2.88964C14.3654 2.85926 14.3654 2.82098 14.3841 2.7906C14.4029 2.76022 14.4371 2.74288 14.4728 2.74574C15.162 2.73343 15.8042 3.09275 16.1524 3.68552C16.5006 4.27828 16.5006 5.01218 16.1524 5.60494C15.8042 6.19771 15.162 6.55703 14.4728 6.54471Z" fill="#83FFA3"/>
<path fill-rule="evenodd" clip-rule="evenodd" d="M14.615 9.13846L16.784 19.401L16.8912 19.3979L16.871 19.6924H11.9188L11.9433 19.3314H12.2775L12.2732 19.3979H13.7696L15.4512 14.544L14.325 9.21726L14.615 9.13846ZM16.4773 19.4009L15.4964 14.7504L13.8828 19.4009H16.4773Z" fill="#83FFA3"/>
<path fill-rule="evenodd" clip-rule="evenodd" d="M3.8174 9.14151L5.98391 19.401H6.09119L6.07096 19.6954H1.11938L1.14329 19.3344H1.47802L1.47311 19.401H2.9714L4.65299 14.5471L3.52743 9.22031L3.8174 9.14151ZM5.67759 19.401L4.69671 14.7505L3.08195 19.401H5.67759Z" fill="#83FFA3"/>
<path d="M15.6045 14.2349L15.3256 15.0394H4.55249L4.83081 14.2349H15.6045Z" fill="#83FFA3"/>
<path d="M15.1802 14.8415L15.3255 15.0394H4.5524L4.4071 14.8415H15.1802Z" fill="#83FFA3"/>
<path opacity="0.2" d="M15.1802 14.8415L15.3255 15.0394H4.5524L4.4071 14.8415H15.1802Z" fill="black"/>
<path d="M13.4471 12.9942H0.28868L0.0980225 12.8049L17.0371 5.62477L17.2272 5.81414L13.4471 12.9942Z" fill="#83FFA3"/>
<path opacity="0.4" d="M13.4471 12.9942H0.28868L0.0980225 12.8049L17.0371 5.62477L17.2272 5.81414L13.4471 12.9942Z" fill="black"/>
<path d="M1.96269 8.80312L2.32782 8.10895L2.38212 8.13731L2.01699 8.83148L1.96269 8.80312Z" fill="#83FFA3"/>
<path d="M1.66889 9.36114L1.84249 9.0311L1.89679 9.05945L1.72319 9.3895L1.66889 9.36114Z" fill="#83FFA3"/>
<path d="M13.2565 12.8049H0.0980225L3.87868 5.62477H17.0371L13.2565 12.8049Z" fill="#83FFA3"/>
<path opacity="0.3" d="M11.9335 11.6534L2.62073 11.6864L5.37576 6.55142C7.58273 6.70903 10.8883 6.72369 14.504 6.65221L11.9335 11.6534Z" fill="black"/>
<path d="M11.7992 11.6864H2.56799L5.22003 6.64917C8.06334 6.75424 11.1083 6.68704 14.3881 6.59663C13.8799 7.86601 12.9579 9.70777 11.7992 11.6864Z" fill="white"/>
<g opacity="0.6">
<path d="M4.19383 11.0926C5.0615 11.0877 5.92916 11.0836 6.79683 11.0804L9.58925 11.0675L10.9913 11.0608C11.0029 11.0589 11.0114 11.049 11.0114 11.0373C11.0114 11.0256 11.0029 11.0156 10.9913 11.0138L8.3883 11.026L5.59587 11.0382L4.19383 11.0449C4.18063 11.0449 4.16992 11.0556 4.16992 11.0688C4.16992 11.0819 4.18063 11.0926 4.19383 11.0926Z" fill="#83FFA3"/>
<path d="M10.8767 11.1384C11.4329 10.0836 11.9942 9.03131 12.5607 7.98144C12.7242 7.67927 12.8877 7.37709 13.0511 7.07492C13.0658 7.04804 13.0248 7.02422 13.0101 7.05048C12.4379 8.09995 11.8725 9.15227 11.3138 10.2074C11.1531 10.51 10.9933 10.8124 10.8344 11.1146C10.8203 11.1414 10.8607 11.1653 10.8754 11.1384H10.8767Z" fill="#83FFA3"/>
<path d="M13.0792 7.09691C12.2075 7.1018 11.3359 7.10587 10.4646 7.10913L7.63906 7.12195L6.24132 7.12867C6.22811 7.12867 6.21741 7.13934 6.21741 7.1525C6.21741 7.16565 6.22811 7.17632 6.24132 7.17632C7.11307 7.17143 7.98462 7.16736 8.85596 7.1641L11.6815 7.15128L13.0792 7.14456C13.0924 7.14456 13.1031 7.13389 13.1031 7.12073C13.1031 7.10757 13.0924 7.09691 13.0792 7.09691Z" fill="#83FFA3"/>
<path d="M6.40622 7.0114C5.84467 8.07797 5.27719 9.1419 4.70379 10.2032C4.54031 10.5074 4.37561 10.8112 4.20968 11.1146C4.19496 11.1415 4.23604 11.1653 4.25075 11.1384C4.82783 10.0796 5.40001 9.01585 5.96728 7.94725C6.12831 7.64344 6.28893 7.33944 6.44914 7.03523C6.46385 7.00835 6.42277 6.98452 6.40806 7.0114H6.40622Z" fill="#83FFA3"/>
<path d="M7.33442 10.5831L8.29261 8.70046L8.5507 8.19466C8.5648 8.16778 8.52373 8.14335 8.50963 8.17084L7.52078 10.1073L7.29089 10.5563C7.2774 10.5838 7.31848 10.6076 7.33196 10.5801L7.33442 10.5831Z" fill="#83FFA3"/>
<path d="M5.05999 10.5911L5.61173 9.50985C5.62522 9.48236 5.58415 9.45854 5.57066 9.48541L5.01892 10.5673C5.00543 10.5947 5.0465 10.6186 5.05999 10.5911Z" fill="#83FFA3"/>
<path d="M10.4996 10.5831C10.9587 9.75786 11.364 8.90388 11.7992 8.06577C11.9059 7.86052 12.0138 7.65527 12.1266 7.4549C12.1413 7.42803 12.1002 7.4042 12.0855 7.43108C11.6263 8.25575 11.2205 9.11035 10.7859 9.94784C10.6792 10.1537 10.5713 10.3583 10.4585 10.5587C10.4438 10.585 10.4842 10.6094 10.4996 10.5825V10.5831Z" fill="#83FFA3"/>
<path d="M7.9805 10.577C8.39737 9.76028 8.81854 8.94478 9.23418 8.12744L9.37518 7.85011L9.4512 7.70045L9.4886 7.62592C9.49902 7.60576 9.51496 7.54956 9.5358 7.53857C9.56651 7.53428 9.59766 7.53428 9.62837 7.53857H9.74546H9.9962C10.3693 7.5349 10.7423 7.53185 11.115 7.52941C11.492 7.52941 11.8684 7.52635 12.2455 7.53307C12.257 7.5312 12.2656 7.52124 12.2656 7.50955C12.2656 7.49786 12.257 7.4879 12.2455 7.48603C11.3363 7.47015 10.4266 7.48603 9.51802 7.49642C9.50949 7.49631 9.50155 7.50073 9.49718 7.50803C8.98345 8.52756 8.45868 9.54159 7.93943 10.5581C7.92533 10.5856 7.9664 10.6094 7.9805 10.5819V10.577Z" fill="#83FFA3"/>
<path d="M10.5033 10.5654C10.2796 9.76213 10.0129 8.97106 9.75663 8.17816C9.68429 7.95499 9.61236 7.73202 9.54084 7.50926C9.53164 7.47994 9.48567 7.49215 9.49486 7.52148C9.75418 8.33454 10.0264 9.14393 10.2759 9.96005C10.3372 10.1653 10.3985 10.3712 10.4598 10.5782C10.4639 10.5902 10.4767 10.5969 10.4889 10.5935C10.5011 10.5901 10.5085 10.5778 10.5058 10.5654H10.5033Z" fill="#83FFA3"/>
<path d="M12.1138 7.48786C11.6074 7.91547 11.0642 8.2942 10.5229 8.67416C9.93682 9.08527 9.34585 9.48905 8.77019 9.91361C8.48574 10.1231 8.20435 10.3375 7.93461 10.5654C7.91132 10.5849 7.94503 10.6185 7.96833 10.599C8.48451 10.1634 9.03748 9.7725 9.58984 9.38399C10.1716 8.97471 10.7595 8.57337 11.3333 8.15248C11.6104 7.94967 11.8851 7.74198 12.1475 7.52146C12.1708 7.5013 12.137 7.46831 12.1138 7.48786Z" fill="#83FFA3"/>
<path d="M7.89167 10.5703C8.593 10.5905 9.29433 10.5984 9.99565 10.599C10.1649 10.599 10.3347 10.599 10.5039 10.5954C10.5154 10.5935 10.524 10.5835 10.524 10.5718C10.524 10.5602 10.5154 10.5502 10.5039 10.5483C9.8007 10.5618 9.09386 10.5483 8.39253 10.5349C8.22579 10.5312 8.05842 10.5282 7.89167 10.5233C7.88009 10.5252 7.87158 10.5351 7.87158 10.5468C7.87158 10.5585 7.88009 10.5685 7.89167 10.5703Z" fill="#83FFA3"/>
<path d="M6.91934 10.599C7.36626 9.77005 7.77761 8.92401 8.21103 8.08712C8.3177 7.88024 8.42601 7.67418 8.53595 7.46893C8.55005 7.44205 8.50897 7.41822 8.49487 7.4451C8.04796 8.27405 7.63661 9.12009 7.20319 9.95698C7.09652 10.1641 6.98923 10.3705 6.87827 10.5752C6.86417 10.6021 6.90524 10.6259 6.91934 10.599Z" fill="#83FFA3"/>
<path d="M5.59951 10.5886C5.87906 10.0413 6.15902 9.49417 6.43939 8.94724C6.57916 8.67357 6.71894 8.3999 6.85871 8.12623C6.92737 7.99246 6.99542 7.85807 7.06347 7.72429C7.08554 7.6803 7.11926 7.56913 7.16707 7.55019C7.2077 7.54388 7.24906 7.54388 7.28968 7.55019H7.42578C7.78135 7.54408 8.13753 7.53736 8.49371 7.55019C8.52375 7.55019 8.52375 7.50376 8.49371 7.50254C8.04189 7.48849 7.59008 7.50254 7.13887 7.50926C7.13034 7.50915 7.1224 7.51357 7.11803 7.52087C6.60246 8.53918 6.07953 9.55444 5.56028 10.5709C5.54618 10.5978 5.58725 10.6222 5.60135 10.5947L5.59951 10.5886Z" fill="#83FFA3"/>
<path d="M6.92306 10.5874C7.01441 9.56787 7.0659 8.54589 7.16031 7.52697C7.16338 7.49642 7.11617 7.49642 7.11311 7.52697C7.0187 8.54589 6.9672 9.56787 6.87524 10.5874C6.87524 10.6173 6.92 10.6173 6.92306 10.5874Z" fill="#83FFA3"/>
<path d="M8.50047 7.50316C7.74029 8.32049 6.95068 9.10973 6.17886 9.91546C5.96838 10.1342 5.75994 10.3547 5.55355 10.577C5.53271 10.599 5.56642 10.6326 5.58727 10.61C6.35174 9.78535 7.14747 8.98939 7.92665 8.17816C8.131 7.96558 8.33351 7.75178 8.53418 7.53675C8.55503 7.51476 8.52131 7.48117 8.50047 7.50316Z" fill="#83FFA3"/>
<path d="M5.54069 10.5831C5.9925 10.6051 6.44677 10.6247 6.8992 10.6118C6.92985 10.6118 6.92985 10.5636 6.8992 10.5648C6.44677 10.577 5.9925 10.5581 5.54069 10.5361C5.51004 10.5361 5.51004 10.5819 5.54069 10.5831Z" fill="#83FFA3"/>
<path d="M6.26958 7.77744C6.24667 7.81519 6.23983 7.86048 6.25057 7.90328C6.2622 7.93962 6.2919 7.96736 6.32904 7.97658C6.41992 7.99138 6.51266 7.96469 6.58162 7.90389C6.65342 7.85168 6.69399 7.76693 6.68951 7.67848C6.67906 7.6042 6.61255 7.55075 6.53748 7.5563C6.48508 7.56225 6.43657 7.58675 6.40077 7.62533C6.38089 7.64361 6.36206 7.66298 6.34437 7.68336C6.32735 7.70038 6.31491 7.72138 6.3082 7.74445C6.30268 7.77438 6.34866 7.78721 6.35418 7.75728C6.3597 7.72735 6.39403 7.69619 6.41548 7.67481C6.43956 7.64783 6.46872 7.62583 6.50131 7.61006C6.52734 7.59847 6.55711 7.59852 6.58311 7.61019C6.60911 7.62186 6.62886 7.64404 6.63741 7.67115C6.64803 7.73597 6.62495 7.80175 6.5761 7.84585C6.52427 7.89963 6.4545 7.93265 6.37993 7.93871C6.34935 7.94303 6.31872 7.93124 6.299 7.90755C6.28351 7.8743 6.28653 7.83541 6.30697 7.80493C6.32107 7.77805 6.28 7.75422 6.2659 7.7811L6.26958 7.77744Z" fill="#83FFA3"/>
</g>
<path opacity="0.2" d="M17.0371 5.62474L13.2583 12.8049H0.0980225L3.87868 5.62474H7.65076L5.72824 6.50256H5.72395C4.74308 6.85869 3.95899 7.40419 3.55806 8.08531C2.63849 9.64546 4.08344 11.3229 6.78268 11.8372C9.48193 12.3516 12.4135 11.4988 13.3312 9.93867C13.5228 9.62674 13.6183 9.26568 13.6059 8.9002L13.8039 5.62108L17.0371 5.62474Z" fill="black"/>
<path d="M5.11202 4.41815C4.95272 4.69707 4.79096 4.98637 4.63658 5.27261C4.48219 5.55885 4.32904 5.84754 4.20234 6.13561C4.16912 6.20763 4.14083 6.27904 4.11131 6.35044C4.10823 6.35716 4.11131 6.35044 4.11131 6.35044C4.11131 6.35044 4.11131 6.35533 4.10762 6.36021C4.10545 6.37846 4.10545 6.39689 4.10762 6.41514C4.11904 6.47458 4.13784 6.53239 4.16359 6.58725C4.19188 6.64828 4.2251 6.71603 4.26261 6.78133C4.42811 7.05305 4.61182 7.31344 4.81249 7.56072L4.57261 7.81401C4.28713 7.60628 4.02995 7.36278 3.80746 7.08955C3.67844 6.93528 3.57863 6.7591 3.51285 6.56955C3.49336 6.5075 3.48138 6.44338 3.47717 6.37852C3.4751 6.34024 3.47633 6.30185 3.48086 6.26378C3.48299 6.24327 3.48627 6.22289 3.4907 6.20275C3.4907 6.19237 3.49624 6.18138 3.4987 6.17101L3.50669 6.14354C3.53499 6.05932 3.56205 5.97387 3.5928 5.89209C3.71333 5.57138 3.85089 5.25724 4.0049 4.95097C4.15928 4.6458 4.31982 4.35346 4.49696 4.05928L5.11202 4.41815Z" fill="#FFC3BD"/>
<path d="M4.72325 7.48015L5.05047 7.58635L4.77553 8.04653C4.77553 8.04653 4.53443 7.9385 4.48645 7.7194L4.72325 7.48015Z" fill="#FFC3BD"/>
<path d="M5.49821 7.76458L5.17899 8.11918L4.77612 8.04716L5.05106 7.58698L5.49821 7.76458Z" fill="#FFC3BD"/>
<path d="M7.02362 2.27651C7.01439 2.31252 7.02362 2.34669 7.05007 2.3528C7.07652 2.3589 7.1005 2.33449 7.11158 2.29848C7.12265 2.26247 7.11158 2.22768 7.08513 2.22158C7.05868 2.21547 7.03285 2.23989 7.02362 2.27651Z" fill="#263238"/>
<path d="M7.02303 2.34608C7.03793 2.4676 7.0696 2.58651 7.11714 2.69946C7.05695 2.72299 6.98933 2.71874 6.93262 2.68787L7.02303 2.34608Z" fill="#ED847E"/>
<path d="M6.94237 2.04155C6.9343 2.03806 6.92908 2.03015 6.92908 2.02141C6.92908 2.01267 6.9343 2.00476 6.94237 2.00127C7.00802 1.97377 7.08305 1.97969 7.1435 2.01714C7.15329 2.02446 7.1557 2.03805 7.14903 2.04826C7.14186 2.05798 7.12815 2.06016 7.11828 2.05315C7.06982 2.02429 7.01037 2.02021 6.95836 2.04216C6.95316 2.04407 6.94741 2.04385 6.94237 2.04155Z" fill="#263238"/>
<path d="M5.76948 2.41811C5.83653 2.75684 5.90357 3.37754 5.66431 3.60336C5.66431 3.60336 5.7578 3.94758 6.39193 3.94758C7.09004 3.94758 6.72592 3.60336 6.72592 3.60336C6.34457 3.51364 6.35687 3.23289 6.41838 2.96984L5.76948 2.41811Z" fill="#FFC3BD"/>
<path d="M5.54749 3.77791C5.51489 3.59482 5.47861 3.38731 5.59916 3.33421C5.7314 3.27318 6.42643 3.26951 6.65093 3.42332C6.87543 3.57712 6.77394 3.93111 6.77394 3.93111L5.54749 3.77791Z" fill="#263238"/>
<path opacity="0.6" d="M5.54749 3.77791C5.51489 3.59482 5.47861 3.38731 5.59916 3.33421C5.7314 3.27318 6.42643 3.26951 6.65093 3.42332C6.87543 3.57712 6.77394 3.93111 6.77394 3.93111L5.54749 3.77791Z" fill="#83FFA3"/>
<path fill-rule="evenodd" clip-rule="evenodd" d="M3.43652 19.3515C3.4002 19.3773 3.35826 19.3805 3.32028 19.3605C3.2804 19.348 3.24161 19.3291 3.20464 19.304C3.20055 19.3017 3.19785 19.296 3.19788 19.2896C3.19827 19.2832 3.20113 19.2776 3.20526 19.2753C3.21141 19.2708 3.35718 19.1847 3.41869 19.2286C3.43261 19.2376 3.44316 19.255 3.4476 19.2762C3.4555 19.3021 3.45103 19.3326 3.43652 19.3515ZM3.40969 19.2583L3.39677 19.252V19.2565C3.34279 19.2505 3.28857 19.2621 3.23808 19.2906C3.30451 19.3265 3.39739 19.3579 3.4226 19.3265C3.42629 19.3238 3.43245 19.3148 3.42629 19.2861C3.42382 19.2737 3.41775 19.2636 3.40969 19.2583Z" fill="#83FFA3"/>
<path fill-rule="evenodd" clip-rule="evenodd" d="M3.21011 19.2772H3.20519C3.20316 19.2768 3.20125 19.276 3.19966 19.2747C3.19665 19.2719 3.19546 19.2677 3.19658 19.2637C3.19664 19.2635 3.19674 19.2632 3.19688 19.2628C3.20105 19.25 3.24041 19.129 3.29991 19.0983C3.31508 19.0903 3.33292 19.089 3.34912 19.0947C3.3659 19.0982 3.37778 19.1131 3.37741 19.1301C3.37618 19.1826 3.26301 19.2619 3.21011 19.2772ZM3.3418 19.1131H3.33872C3.3293 19.1105 3.31927 19.1114 3.31043 19.1155C3.26953 19.1496 3.23994 19.1951 3.22555 19.2461C3.28029 19.2205 3.35533 19.1583 3.35533 19.1271C3.35533 19.1241 3.35533 19.1174 3.3418 19.1131Z" fill="#83FFA3"/>
<path fill-rule="evenodd" clip-rule="evenodd" d="M6.89935 19.538C6.87967 19.575 6.8237 19.587 6.76219 19.587C6.71497 19.5864 6.66786 19.5804 6.62134 19.569C6.61691 19.5674 6.61355 19.5624 6.61273 19.5561C6.61187 19.5496 6.6141 19.543 6.61827 19.5398C6.6238 19.5346 6.7868 19.4048 6.86429 19.434C6.87905 19.4388 6.89174 19.4518 6.89935 19.4701C6.90973 19.4904 6.90973 19.5177 6.89935 19.538ZM6.8574 19.4607C6.85026 19.4593 6.84302 19.4593 6.83588 19.4607H6.83403C6.77016 19.4714 6.70836 19.4991 6.65197 19.5423C6.73869 19.5595 6.85679 19.5587 6.87893 19.5165C6.88385 19.5105 6.88693 19.5011 6.87893 19.4822C6.87414 19.4712 6.86637 19.4635 6.8574 19.4607Z" fill="#83FFA3"/>
<path fill-rule="evenodd" clip-rule="evenodd" d="M6.62572 19.5286H6.62142C6.61915 19.529 6.6168 19.5288 6.61465 19.528C6.61141 19.5256 6.60976 19.5216 6.61035 19.5176C6.61035 19.5127 6.6208 19.3876 6.68231 19.3394C6.69931 19.3249 6.72156 19.3181 6.74382 19.3205C6.77395 19.3235 6.78503 19.3388 6.78503 19.351C6.79364 19.4065 6.68169 19.5036 6.62572 19.5286ZM6.74131 19.3407H6.73516C6.721 19.3408 6.70731 19.3458 6.69641 19.3548C6.66169 19.395 6.64022 19.4449 6.6349 19.4976C6.69272 19.4628 6.76837 19.3841 6.76345 19.3529C6.76342 19.3528 6.76339 19.3527 6.76336 19.3525C6.76267 19.3496 6.76063 19.3407 6.74131 19.3407Z" fill="#83FFA3"/>
<path d="M6.10779 19.5176H6.57463L6.62076 18.4447H6.15453L6.10779 19.5176Z" fill="#FFC3BD"/>
<path d="M2.68677 19.1539L3.14253 19.2521L3.60076 18.253L3.14438 18.1548L2.68677 19.1539Z" fill="#FFC3BD"/>
<path d="M3.18683 19.2064L2.67386 19.0965C2.65523 19.0925 2.63629 19.1019 2.62834 19.1191L2.45059 19.5018C2.44193 19.5207 2.44247 19.5426 2.45205 19.5611C2.46163 19.5797 2.47921 19.5929 2.49979 19.597C2.67939 19.6324 2.76858 19.6403 2.99185 19.6891C3.13085 19.719 3.44393 19.7947 3.63521 19.8356C3.8265 19.8765 3.89293 19.694 3.81973 19.6604C3.48513 19.5085 3.34551 19.3748 3.25448 19.2503C3.23815 19.2279 3.21406 19.2122 3.18683 19.2064Z" fill="#263238"/>
<path d="M6.57151 19.4639H6.06162C6.04255 19.4638 6.02607 19.4771 6.02226 19.4957L5.93 19.907C5.92525 19.9272 5.93014 19.9484 5.94324 19.9645C5.95634 19.9806 5.97619 19.9898 5.99704 19.9894C6.18156 19.9864 6.44665 19.976 6.67792 19.976C6.94794 19.976 7.18105 19.9906 7.49842 19.9906C7.68971 19.9906 7.74445 19.7984 7.66265 19.7807C7.29791 19.7013 6.9996 19.6928 6.68407 19.4999C6.65058 19.4779 6.61165 19.4655 6.57151 19.4639Z" fill="#263238"/>
<path d="M7.50207 4.16302C7.65399 4.50298 7.82006 4.85208 7.99412 5.18593C8.08085 5.35316 8.17126 5.51795 8.26475 5.67419C8.35514 5.82862 8.45497 5.97741 8.56368 6.11973L8.60304 6.16856C8.61288 6.17771 8.60304 6.17344 8.61842 6.18442C8.64296 6.20575 8.6693 6.22494 8.69715 6.2418C8.77097 6.28647 8.84715 6.32722 8.92534 6.36386C9.09017 6.44259 9.26547 6.51827 9.44322 6.58968C9.79812 6.73311 10.1635 6.87043 10.5264 7.00775L10.4378 7.34465C10.044 7.28193 9.65394 7.1984 9.26916 7.09442C9.07603 7.03949 8.8829 6.98334 8.68792 6.91132C8.58535 6.87373 8.48512 6.83012 8.38777 6.78071C8.32995 6.75097 8.27462 6.71668 8.22231 6.67818C8.18894 6.65328 8.15767 6.62573 8.12882 6.59578L8.07162 6.53475C7.9312 6.37723 7.8031 6.20931 7.68843 6.03245C7.57464 5.86217 7.47193 5.68823 7.37352 5.51246C7.17907 5.16253 7.00453 4.80208 6.85071 4.43279L7.50207 4.16302Z" fill="#FFC3BD"/>
<path d="M4.68452 3.70835C4.24721 3.80783 3.51282 5.9635 3.51282 5.9635L4.22753 6.19909C4.22753 6.19909 4.957 5.12674 5.20487 4.61224C5.46382 4.06844 5.13229 3.60642 4.68452 3.70835Z" fill="#83FFA3"/>
<path opacity="0.5" d="M4.68452 3.70835C4.24721 3.80783 3.51282 5.9635 3.51282 5.9635L4.22753 6.19909C4.22753 6.19909 4.957 5.12674 5.20487 4.61224C5.46382 4.06844 5.13229 3.60642 4.68452 3.70835Z" fill="black"/>
<path d="M4.35171 6.09348C4.35171 6.09348 3.65115 5.96104 3.49062 5.86217C3.43465 5.94273 3.3676 6.23447 3.41312 6.32052C3.45863 6.40658 4.11122 6.53047 4.19979 6.47982C4.28836 6.42916 4.35171 6.09348 4.35171 6.09348Z" fill="#263238"/>
<path opacity="0.6" d="M4.35171 6.09348C4.35171 6.09348 3.65115 5.96104 3.49062 5.86217C3.43465 5.94273 3.3676 6.23447 3.41312 6.32052C3.45863 6.40658 4.11122 6.53047 4.19979 6.47982C4.28836 6.42916 4.35171 6.09348 4.35171 6.09348Z" fill="#83FFA3"/>
<path opacity="0.3" d="M4.96805 4.47371C4.83458 4.60615 4.71341 4.98211 4.70972 5.45999C4.8641 5.21586 5.0234 4.95403 5.13473 4.74469C5.08183 4.5561 5.02279 4.42122 4.96805 4.47371Z" fill="black"/>
<path d="M7.29972 3.73215C7.29972 3.73215 7.7967 4.28877 7.3274 7.73589H4.83083C4.81361 7.35566 5.0541 5.50027 4.68445 3.70774C4.96049 3.65484 5.23971 3.61977 5.52033 3.60276C5.87391 3.58261 6.22836 3.58261 6.58194 3.60276C6.82423 3.62729 7.06422 3.67055 7.29972 3.73215Z" fill="#83FFA3"/>
<path opacity="0.5" d="M7.29972 3.73215C7.29972 3.73215 7.7967 4.28877 7.3274 7.73589H4.83083C4.81361 7.35566 5.0541 5.50027 4.68445 3.70774C4.96049 3.65484 5.23971 3.61977 5.52033 3.60276C5.87391 3.58261 6.22836 3.58261 6.58194 3.60276C6.82423 3.62729 7.06422 3.67055 7.29972 3.73215Z" fill="black"/>
<path opacity="0.3" d="M6.92957 4.83316C6.97693 5.33607 7.29861 5.97447 7.48682 6.26376C7.51142 5.93175 7.52434 5.64245 7.52803 5.38978L6.92957 4.83316Z" fill="black"/>
<path d="M6.68159 4.09103C6.38082 4.65558 7.95109 6.49144 7.95109 6.49144L8.49974 5.93909C8.49974 5.93909 7.78749 4.70318 7.62019 4.15511C7.41352 3.47765 6.9104 3.66136 6.68159 4.09103Z" fill="#83FFA3"/>
<path opacity="0.5" d="M6.68159 4.09103C6.38082 4.65558 7.95109 6.49144 7.95109 6.49144L8.49974 5.93909C8.49974 5.93909 7.78749 4.70318 7.62019 4.15511C7.41352 3.47765 6.9104 3.66136 6.68159 4.09103Z" fill="black"/>
<path d="M8.47759 5.82985C8.47759 5.82985 8.00153 6.35656 7.83423 6.44018C7.87482 6.52928 8.09071 6.73862 8.18974 6.74534C8.28876 6.75205 8.73161 6.26074 8.73346 6.15943C8.7353 6.05811 8.47759 5.82985 8.47759 5.82985Z" fill="#263238"/>
<path opacity="0.6" d="M8.47759 5.82985C8.47759 5.82985 8.00153 6.35656 7.83423 6.44018C7.87482 6.52928 8.09071 6.73862 8.18974 6.74534C8.28876 6.75205 8.73161 6.26074 8.73346 6.15943C8.7353 6.05811 8.47759 5.82985 8.47759 5.82985Z" fill="#83FFA3"/>
<path d="M10.4188 7.01386L10.8709 6.82039L11.0117 7.30865C11.0117 7.30865 10.6667 7.53264 10.3905 7.33672L10.4188 7.01386Z" fill="#FFC3BD"/>
<path d="M11.3753 7.05171C11.3605 7.0615 11.3405 7.0577 11.3304 7.04317L10.8285 6.30467C10.8236 6.29766 10.8217 6.28898 10.8233 6.2806C10.8249 6.27222 10.8299 6.26483 10.8371 6.26012C10.8441 6.25525 10.8529 6.25342 10.8613 6.25502C10.8698 6.25663 10.8772 6.26155 10.882 6.26866L11.3839 7.00716C11.3888 7.01417 11.3906 7.02285 11.389 7.03123C11.3874 7.03962 11.3824 7.047 11.3753 7.05171Z" fill="#263238"/>
<path d="M11.3475 6.8564L11.5462 7.14813L11.0117 7.30682L10.8708 6.81978L11.3475 6.8564Z" fill="#FFC3BD"/>
<path opacity="0.2" d="M6.62071 18.4453L6.59734 18.9982H6.12988L6.15387 18.4453H6.62071Z" fill="black"/>
<path opacity="0.2" d="M3.14439 18.1554L3.60077 18.253L3.36458 18.7681L2.9082 18.6699L3.14439 18.1554Z" fill="black"/>
<path d="M5.82731 1.88957C5.73997 2.34121 5.66555 2.60121 5.83285 2.88685C6.08441 3.31407 6.68964 3.25304 6.91107 2.83741C7.11096 2.46267 7.2186 1.78765 6.82742 1.49896C6.6521 1.36879 6.42136 1.33799 6.21761 1.41757C6.01386 1.49714 5.86618 1.67575 5.82731 1.88957Z" fill="#FFC3BD"/>
<path d="M5.64767 1.66617C5.97673 1.55936 6.60041 1.32927 6.82061 1.85476C7.0408 2.38025 6.14403 2.92893 5.91584 2.92954C5.73255 2.93138 5.28601 1.78823 5.64767 1.66617Z" fill="#263238"/>
<path d="M6.33286 1.88773C6.97745 2.23867 7.563 1.73393 7.30159 1.16327C7.04019 0.592618 6.46879 0.675012 6.64655 0.95332C6.8243 1.23163 6.33286 0.809894 5.99334 0.939893C5.75531 1.03083 6.06408 1.17914 6.09298 1.28656C6.12189 1.39398 5.46992 1.39703 5.38319 1.55815C5.29647 1.71928 5.60954 2.05496 5.77007 2.00247C5.93061 1.94998 6.21907 1.82487 6.33286 1.88773Z" fill="#263238"/>
<path d="M6.51933 2.1581C6.49806 2.2704 6.51493 2.38652 6.5673 2.48829C6.63681 2.62134 6.75736 2.58167 6.80964 2.45533C6.857 2.3412 6.8773 2.13491 6.77274 2.04397C6.66817 1.95303 6.54639 2.02322 6.51933 2.1581Z" fill="#FFC3BD"/>
<path d="M6.44178 7.73587C6.44178 7.73587 5.9122 11.2758 5.62128 12.6014C5.30267 14.054 3.60016 18.7089 3.60016 18.7089L2.76428 18.5295C2.76428 18.5295 4.03932 14.1711 4.22077 12.7314C4.4182 11.1708 4.83091 7.73404 4.83091 7.73404L6.44178 7.73587Z" fill="#263238"/>
<path d="M3.80003 18.4325C3.80372 18.4325 3.64442 18.7321 3.64442 18.7321L2.70398 18.5301L2.78332 18.25L3.80003 18.4325Z" fill="#83FFA3"/>
<path opacity="0.3" d="M6.10717 8.9968C5.4921 9.11581 5.55914 11.3826 5.63295 12.5483C5.80948 11.7243 6.06842 10.1387 6.24495 9.01328C6.20219 8.99257 6.15366 8.98677 6.10717 8.9968Z" fill="black"/>
<path d="M7.32618 7.73589C7.32618 7.73589 7.38768 11.1989 7.33971 12.6112C7.28804 14.0802 6.77261 18.8908 6.77261 18.8908H5.9804C5.9804 18.8908 5.95088 14.1663 5.91582 12.7235C5.87769 11.1507 5.6864 7.73589 5.6864 7.73589L7.32618 7.73589Z" fill="#263238"/>
<path d="M6.92333 18.5783C6.92702 18.5783 6.87843 18.9042 6.87843 18.9042H5.91646L5.89062 18.6137L6.92333 18.5783Z" fill="#83FFA3"/>
</svg>
