<svg width="196" height="93" viewBox="0 0 196 93" fill="none" xmlns="http://www.w3.org/2000/svg">
<g opacity="0.0636858">
<mask id="mask0_9_4418" style="mask-type:luminance" maskUnits="userSpaceOnUse" x="12" y="-20" width="184" height="184">
<path fill-rule="evenodd" clip-rule="evenodd" d="M12.0885 -19.6765H195.383V163.14H12.0885V-19.6765Z" fill="white"/>
</mask>
<g mask="url(#mask0_9_4418)">
<path fill-rule="evenodd" clip-rule="evenodd" d="M195.048 56.3467C195.106 55.0429 194.499 53.8189 193.427 53.0734L90.2902 -18.6654C89.4591 -19.2439 88.4513 -19.4647 87.4531 -19.2877C86.4555 -19.1101 85.5863 -18.556 85.0072 -17.7265L13.101 85.1204C12.6886 85.7103 12.4538 86.4009 12.4225 87.1163C12.3656 88.4204 12.972 89.6438 14.0438 90.3902L117.18 162.129C118.012 162.707 119.019 162.928 120.018 162.751C121.015 162.573 121.885 162.02 122.464 161.19L194.37 58.3433C194.783 57.7531 195.017 57.0623 195.048 56.3467ZM12.0925 87.1021C12.1268 86.3238 12.3821 85.5738 12.8306 84.9323L84.7359 -17.9148C85.3661 -18.8162 86.3106 -19.4187 87.3955 -19.6117C88.4804 -19.8043 89.5754 -19.5642 90.4793 -18.9356L193.617 52.8035C194.782 53.6143 195.441 54.9442 195.379 56.3616C195.344 57.1396 195.089 57.8898 194.641 58.5317L122.735 161.378C122.105 162.28 121.161 162.882 120.076 163.075C118.991 163.268 117.896 163.027 116.992 162.399L13.8554 90.6596C12.69 89.8494 12.0305 88.5192 12.0925 87.1021Z" fill="#DADADA"/>
</g>
<path fill-rule="evenodd" clip-rule="evenodd" d="M190.257 55.3095C190.313 54.0586 189.736 52.8771 188.718 52.149L89.0804 -19.0492C88.2784 -19.6229 87.3001 -19.8504 86.3262 -19.6903C85.3521 -19.5298 84.4995 -19.0007 83.9245 -18.2007L12.5602 81.1556C12.1415 81.7391 11.9036 82.4242 11.8724 83.1375C11.8177 84.3887 12.3935 85.5703 13.4129 86.2976L113.05 157.497C114.707 158.68 117.019 158.3 118.205 156.648L189.57 57.2915C189.989 56.7083 190.226 56.0226 190.257 55.3095ZM11.5427 83.1227C11.5763 82.346 11.8357 81.5993 12.292 80.9639L83.6565 -18.3921C84.2825 -19.2639 85.2116 -19.8399 86.2722 -20.0148C87.3329 -20.1893 88.3985 -19.9414 89.2726 -19.317L188.909 51.8817C190.02 52.6748 190.647 53.9613 190.588 55.3238C190.553 56.101 190.295 56.8481 189.838 57.4832L118.473 156.839C117.181 158.639 114.661 159.053 112.857 157.764L13.2204 86.5656C12.1105 85.7727 11.4829 84.4857 11.5427 83.1227Z" fill="#DADADA"/>
<path fill-rule="evenodd" clip-rule="evenodd" d="M185.467 54.2716C185.519 53.074 184.973 51.9345 184.008 51.2242L87.8705 -19.4334C86.2741 -20.6066 84.0186 -20.2661 82.8422 -18.6744L12.0196 77.1912C11.594 77.7667 11.3525 78.4476 11.3214 79.1593C11.269 80.3569 11.8148 81.4959 12.7813 82.206L108.918 152.864C109.692 153.433 110.64 153.666 111.59 153.523C112.54 153.38 113.377 152.876 113.947 152.105L184.769 56.2391C185.195 55.6637 185.436 54.9833 185.467 54.2716ZM10.9918 79.1443C11.0258 78.3673 11.289 77.6245 11.7536 76.9964L82.5767 -18.8695C83.8608 -20.6076 86.3233 -20.9792 88.0661 -19.6984L184.203 50.9593C185.258 51.7352 185.854 52.9791 185.797 54.2864C185.763 55.0634 185.5 55.8061 185.035 56.4349L114.212 152.301C113.59 153.142 112.677 153.692 111.64 153.849C110.603 154.005 109.567 153.75 108.723 153.13L12.5857 82.4714C11.5308 81.6958 10.9346 80.4523 10.9918 79.1443Z" fill="#DADADA"/>
<path fill-rule="evenodd" clip-rule="evenodd" d="M180.678 53.234C180.728 52.0887 180.212 50.9922 179.298 50.2999L86.6606 -19.8173C85.9159 -20.3807 84.9965 -20.6213 84.0708 -20.4949C83.1457 -20.3686 82.3247 -19.8902 81.7603 -19.1479L11.478 73.2275C11.0458 73.7963 10.8007 74.4713 10.7697 75.181C10.7196 76.326 11.2355 77.4225 12.1499 78.1148L104.788 148.232C106.323 149.394 108.521 149.094 109.687 147.563L179.97 55.1877C180.402 54.6193 180.647 53.9439 180.678 53.234ZM10.4402 75.1662C10.4738 74.3894 10.742 73.6498 11.2153 73.0284L81.497 -19.3469C82.1152 -20.1592 83.0134 -20.6826 84.026 -20.8212C85.0387 -20.9594 86.0449 -20.696 86.8598 -20.0796L179.497 50.0379C180.497 50.7952 181.062 51.9953 181.007 53.2486C180.973 54.0254 180.706 54.7649 180.232 55.3868L109.95 147.762C108.674 149.438 106.269 149.767 104.588 148.494L11.9507 78.3767C10.9499 77.6192 10.3852 76.4198 10.4402 75.1662Z" fill="#DADADA"/>
<path fill-rule="evenodd" clip-rule="evenodd" d="M175.888 52.1965C175.936 51.1032 175.449 50.0485 174.586 49.375L85.4497 -20.2018C84.7345 -20.7598 83.8442 -21.0071 82.9429 -20.8974C82.041 -20.7879 81.2368 -20.3349 80.6772 -19.6216L10.9362 69.2631C10.4964 69.823 10.248 70.493 10.217 71.2016C10.1691 72.2948 10.656 73.3494 11.5186 74.0231L100.655 143.6C101.371 144.158 102.261 144.405 103.162 144.295C104.064 144.186 104.868 143.733 105.428 143.02L175.169 54.1352C175.609 53.5754 175.857 52.9047 175.888 52.1965ZM9.88717 71.1869C9.9215 70.4094 10.194 69.6746 10.6762 69.0593L80.4172 -19.8246C81.0311 -20.6069 81.9141 -21.104 82.9026 -21.224C83.8916 -21.3443 84.8681 -21.0733 85.6532 -20.4607L174.789 49.116C175.736 49.8547 176.27 51.0117 176.218 52.2108C176.184 52.9882 175.911 53.7238 175.43 54.3386L105.688 143.223C105.074 144.006 104.191 144.503 103.202 144.622C102.214 144.743 101.237 144.472 100.452 143.859L11.3151 74.2825C10.3687 73.5435 9.83495 72.3863 9.88717 71.1869Z" fill="#DADADA"/>
<path fill-rule="evenodd" clip-rule="evenodd" d="M171.101 51.159C171.146 50.1175 170.689 49.1053 169.877 48.4508L84.2399 -20.5857C82.8233 -21.7276 80.7396 -21.5077 79.5952 -20.0952L10.3949 65.2995C9.94843 65.8502 9.69517 66.5159 9.66418 67.223C9.61851 68.2648 10.0764 69.2767 10.8882 69.9313L96.525 138.967C97.2115 139.521 98.0725 139.774 98.9492 139.682C99.827 139.589 100.616 139.161 101.17 138.477L170.37 53.0833C170.817 52.5317 171.07 51.866 171.101 51.159ZM9.33448 67.2088C9.36823 66.4308 9.64651 65.6991 10.1383 65.0922L79.3381 -20.302C80.5968 -21.8556 82.8887 -22.0976 84.447 -20.8418L170.084 48.195C170.977 48.9142 171.48 50.0279 171.43 51.1734C171.396 51.951 171.118 52.683 170.627 53.2905L101.426 138.684C100.817 139.437 99.9488 139.907 98.9844 140.009C98.0192 140.111 97.0722 139.833 96.3176 139.224L10.6807 70.1874C9.78747 69.4678 9.2843 68.3541 9.33448 67.2088Z" fill="#DADADA"/>
<path fill-rule="evenodd" clip-rule="evenodd" d="M166.313 50.1211C166.357 49.1166 165.939 48.1703 165.166 47.5258L83.0295 -20.9703C82.3718 -21.518 81.5406 -21.7783 80.6871 -21.7023C79.8338 -21.6266 79.0617 -21.2238 78.5124 -20.5684L9.85332 61.335C9.39772 61.8784 9.14067 62.5381 9.10998 63.2438C9.06619 64.2488 9.48485 65.1954 10.2573 65.8397L92.3943 134.336C93.7512 135.467 95.7772 135.287 96.9111 133.934L165.57 52.0308C166.025 51.4876 166.283 50.8273 166.313 50.1211ZM8.78063 63.2292C8.81423 62.4514 9.09775 61.723 9.59991 61.1236L78.2588 -20.7795C78.865 -21.5025 79.7165 -21.9466 80.6577 -22.03C81.5988 -22.1138 82.5162 -21.8268 83.241 -21.2225L165.378 47.2731C166.23 47.9841 166.691 49.0271 166.643 50.136C166.609 50.915 166.326 51.6428 165.823 52.2417L97.1643 134.145C95.9133 135.638 93.6788 135.836 92.1822 134.589L10.0455 66.0931C9.19288 65.3819 8.73175 64.3383 8.78063 63.2292Z" fill="#DADADA"/>
<path fill-rule="evenodd" clip-rule="evenodd" d="M161.528 49.084C161.569 48.1299 161.179 47.2253 160.456 46.6004L81.8195 -21.3541C81.1914 -21.8976 80.3888 -22.1643 79.5592 -22.1049C78.73 -22.0458 77.974 -21.6685 77.4294 -21.042L9.31254 57.3708C8.84791 57.9055 8.58636 58.5602 8.55552 59.2655C8.51377 60.2193 8.9045 61.1244 9.62675 61.7491L88.2635 129.704C88.8922 130.247 89.6948 130.513 90.5241 130.454C91.3527 130.396 92.1088 130.018 92.6533 129.392L160.77 50.9786C161.235 50.4444 161.497 49.7891 161.528 49.084ZM8.22572 59.2512C8.25976 58.4711 8.54968 57.7465 9.06304 57.1556L77.1801 -21.2574C77.7822 -21.9506 78.6188 -22.3681 79.5358 -22.4332C80.4531 -22.4987 81.3409 -22.2038 82.0355 -21.6032L160.672 46.3516C161.472 47.0428 161.903 48.0437 161.858 49.0984C161.823 49.8781 161.534 50.6028 161.021 51.1947L92.9026 129.607C92.3011 130.3 91.4644 130.718 90.5475 130.783C89.6303 130.848 88.7424 130.554 88.048 129.953L9.41071 61.9975C8.61136 61.3067 8.1799 60.306 8.22572 59.2512Z" fill="#DADADA"/>
<path fill-rule="evenodd" clip-rule="evenodd" d="M156.742 48.0464C156.781 47.1435 156.418 46.2794 155.745 45.6752L80.6077 -21.7394C80.0088 -22.2772 79.2354 -22.5499 78.4303 -22.5074C77.6255 -22.4652 76.8849 -22.1129 76.3461 -21.5151L8.76976 53.4072C8.30266 53.9245 8.02889 54.5925 7.99848 55.2868C7.95935 56.1896 8.32273 57.054 8.99553 57.6575L84.1324 125.073C84.7312 125.61 85.5046 125.883 86.3104 125.841C87.1147 125.799 87.8551 125.446 88.3945 124.849L155.97 49.9263C156.438 49.4088 156.712 48.7407 156.742 48.0464ZM7.66882 55.2727C7.70286 54.502 8.00616 53.7609 8.52461 53.1873L76.1008 -21.7352C76.6985 -22.398 77.52 -22.7893 78.4133 -22.8363C79.3065 -22.8832 80.1643 -22.5802 80.8291 -21.9838L155.966 45.431C156.712 46.1006 157.115 47.0593 157.072 48.0608C157.038 48.8314 156.734 49.5717 156.216 50.1465L88.6398 125.069C88.042 125.731 87.2207 126.123 86.3275 126.17C85.4348 126.217 84.5765 125.914 83.9119 125.317L8.77482 57.9018C8.02813 57.2326 7.62547 56.2738 7.66882 55.2727Z" fill="#DADADA"/>
<path fill-rule="evenodd" clip-rule="evenodd" d="M151.959 47.0089C151.996 46.1561 151.659 45.3329 151.035 44.7499L79.398 -22.124C78.8276 -22.6567 78.0829 -22.936 77.3025 -22.9101C76.5216 -22.8843 75.7972 -22.557 75.263 -21.988L8.22828 49.4436C7.75144 49.9515 7.47214 50.6139 7.44173 51.3085C7.40464 52.1614 7.74125 52.9844 8.36488 53.5673L80.0022 120.441C81.1795 121.541 83.0347 121.48 84.1369 120.306L151.172 48.8738C151.649 48.3656 151.928 47.7035 151.959 47.0089ZM7.11196 51.2942C7.146 50.5212 7.45686 49.784 7.9871 49.2187L75.0223 -22.2128C75.6164 -22.8461 76.422 -23.2105 77.291 -23.239C78.1602 -23.2675 78.9885 -22.9571 79.6234 -22.3641L151.26 44.51C151.955 45.1584 152.33 46.0742 152.288 47.0233C152.254 47.796 151.944 48.5329 151.413 49.099L84.3775 120.531C83.1511 121.837 81.0867 121.905 79.7768 120.681L8.13969 53.8074C7.44523 53.1591 7.07079 52.2425 7.11196 51.2942Z" fill="#DADADA"/>
<path fill-rule="evenodd" clip-rule="evenodd" d="M147.176 45.9713C147.211 45.1686 146.901 44.3858 146.324 43.8247L78.1875 -22.5093C77.069 -23.5978 75.271 -23.5762 74.1797 -22.461L7.68577 45.48C7.19845 45.9772 6.91304 46.6349 6.88292 47.3291C6.84758 48.1328 7.1583 48.915 7.73479 49.4762L75.8715 115.811C76.9902 116.899 78.7877 116.876 79.8787 115.762L146.373 47.8212C146.86 47.3232 147.145 46.666 147.176 45.9713ZM6.5534 47.3144C6.58701 46.5393 6.90573 45.8057 7.44964 45.2497L73.9438 -22.6913C75.1623 -23.9361 77.169 -23.9601 78.4174 -22.7445L146.555 43.5891C147.198 44.2154 147.545 45.0891 147.505 45.9859C147.472 46.7614 147.153 47.4953 146.609 48.0512L80.1147 115.992C78.8966 117.237 76.8897 117.261 75.6408 116.045L7.50462 49.7112C6.86092 49.085 6.51427 48.2113 6.5534 47.3144Z" fill="#DADADA"/>
<path fill-rule="evenodd" clip-rule="evenodd" d="M142.394 44.9339C142.427 44.1795 142.142 43.4382 141.613 42.8995L76.9754 -22.8943C75.9163 -23.972 74.1759 -23.9899 73.0954 -22.9343L7.14263 41.5158C6.64411 42.0033 6.3523 42.6547 6.3216 43.3507C6.28887 44.105 6.57428 44.8463 7.1035 45.3855L71.7396 111.18C72.7992 112.257 74.5393 112.275 75.6203 111.218L141.573 46.7687C142.072 46.2813 142.363 45.6295 142.394 44.9339ZM5.992 43.3362C6.02618 42.5571 6.35334 41.8271 6.9118 41.2809L72.8643 -23.1695C74.075 -24.3521 76.0246 -24.3319 77.211 -23.1247L141.848 42.6688C142.442 43.2725 142.76 44.1032 142.724 44.9481C142.69 45.7278 142.363 46.4575 141.804 47.0037L75.8514 111.454C74.6416 112.637 72.691 112.617 71.5047 111.41L6.86757 45.6164C6.27464 45.0123 5.9552 44.1809 5.992 43.3362Z" fill="#DADADA"/>
<path fill-rule="evenodd" clip-rule="evenodd" d="M137.614 43.8964C137.646 43.1798 137.393 42.4966 136.901 41.9725L75.7642 -23.2797C75.2807 -23.7964 74.6233 -24.0946 73.9148 -24.1186C73.2058 -24.1426 72.53 -23.8898 72.0118 -23.4071L6.60066 37.5524C6.08934 38.0288 5.79127 38.6747 5.76073 39.3718C5.72945 40.0882 5.98227 40.7715 6.47309 41.2956L67.6104 106.548C68.61 107.615 70.2931 107.671 71.363 106.675L136.775 45.7155C137.286 45.2394 137.584 44.5932 137.614 43.8964ZM5.43118 39.3568C5.46551 38.5729 5.80052 37.8477 6.37469 37.3124L71.7867 -23.6476C72.3693 -24.1906 73.1288 -24.4746 73.9263 -24.4474C74.723 -24.4205 75.4614 -24.0854 76.0063 -23.5044L137.143 41.748C137.695 42.3372 137.979 43.1054 137.945 43.9108C137.91 44.6946 137.575 45.4211 137 45.956L71.5883 106.916C70.3864 108.036 68.4933 107.972 67.3693 106.773L6.23242 41.5202C5.6808 40.9306 5.39568 40.1631 5.43118 39.3568Z" fill="#DADADA"/>
<path fill-rule="evenodd" clip-rule="evenodd" d="M132.836 42.8591C132.865 42.1902 132.636 41.5472 132.19 41.0468L74.5533 -23.6652C73.6126 -24.7212 71.9861 -24.8176 70.9274 -23.8801L6.05693 33.5895C5.5328 34.0535 5.22746 34.6937 5.19706 35.3927C5.16797 36.061 5.39723 36.7051 5.84294 37.2053L63.48 101.917C64.4206 102.974 66.0465 103.07 67.1061 102.132L131.976 44.6627C132.5 44.1985 132.806 43.5577 132.836 42.8591ZM4.86717 35.3783C4.90179 34.5903 5.24669 33.8672 5.83832 33.3434L70.7083 -24.1262C71.9029 -25.1842 73.7384 -25.0756 74.8001 -23.884L132.437 40.8285C132.94 41.3927 133.199 42.1189 133.166 42.8735C133.132 43.6622 132.787 44.3847 132.196 44.9089L67.325 102.379C66.13 103.436 64.2945 103.328 63.2327 102.136L5.59611 37.4245C5.09322 36.8595 4.83429 36.133 4.86717 35.3783Z" fill="#DADADA"/>
<path fill-rule="evenodd" clip-rule="evenodd" d="M128.061 41.8218C128.088 41.2006 127.882 40.5961 127.48 40.1199L73.3429 -24.0514C72.9162 -24.5576 72.3167 -24.8679 71.6561 -24.9245C70.995 -24.9814 70.3513 -24.7785 69.8439 -24.3525L5.51458 29.6265C4.98435 30.0712 4.66316 30.7227 4.63275 31.4138C4.6057 32.0351 4.81153 32.6392 5.21332 33.1158L59.3504 97.2874C60.2318 98.332 61.8018 98.467 62.8495 97.5879L127.179 43.6097C127.709 43.1647 128.031 42.5129 128.061 41.8218ZM4.30285 31.3995C4.33718 30.616 4.70144 29.8782 5.30178 29.3746L69.6312 -24.6045C70.2067 -25.0867 70.9354 -25.3171 71.6842 -25.2525C72.4331 -25.1881 73.1117 -24.8366 73.5954 -24.2633L127.732 39.9083C128.187 40.4478 128.421 41.1324 128.39 41.8359C128.356 42.6191 127.992 43.3574 127.391 43.8617L63.0617 97.84C61.8748 98.8361 60.0963 98.6829 59.098 97.4992L4.96124 33.3271C4.50593 32.7879 4.27216 32.1033 4.30285 31.3995Z" fill="#DADADA"/>
<path fill-rule="evenodd" clip-rule="evenodd" d="M123.286 40.7844C123.311 40.2092 123.127 39.6443 122.768 39.1931L72.1308 -24.4375C71.732 -24.9384 71.1618 -25.2548 70.5246 -25.328C69.8878 -25.4013 69.2607 -25.2226 68.7589 -24.8255L4.9702 25.663C4.42512 26.0945 4.0952 26.7401 4.06465 27.435C4.03992 28.0093 4.22365 28.5743 4.58252 29.0261L55.2192 92.6571C56.0422 93.6913 57.5549 93.8652 58.592 93.0444L122.38 42.5568C122.925 42.1252 123.256 41.4788 123.286 40.7844ZM3.73487 27.4202C3.76891 26.6304 4.1448 25.8962 4.76552 25.405L68.5532 -25.0833C69.1245 -25.5352 69.8379 -25.7383 70.5625 -25.655C71.287 -25.5716 71.9358 -25.212 72.3894 -24.6421L123.026 38.9887C123.435 39.5018 123.644 40.1449 123.615 40.7989C123.581 41.5887 123.206 42.3234 122.585 42.8141L58.7964 93.3026C57.6186 94.2357 55.8972 94.0378 54.9611 92.8617L4.32387 29.2312C3.91583 28.717 3.70636 28.074 3.73487 27.4202Z" fill="#DADADA"/>
<path fill-rule="evenodd" clip-rule="evenodd" d="M118.515 39.7478C118.538 39.2182 118.375 38.6922 118.057 38.2661L70.9202 -24.8241C70.1557 -25.8469 68.6997 -26.0594 67.6737 -25.2976L4.42788 21.7002C3.86593 22.1173 3.52612 22.7572 3.49571 23.4553C3.47288 23.9848 3.63551 24.5106 3.95321 24.9374L51.0907 88.028C51.8547 89.0507 53.3109 89.2629 54.3362 88.5011L117.583 41.5035C118.145 41.0863 118.484 40.4465 118.515 39.7478ZM3.16591 23.4411C3.20068 22.643 3.58908 21.9126 4.23045 21.4355L67.4767 -25.5615C68.6482 -26.432 70.3118 -26.1892 71.1849 -25.0207L118.322 38.0697C118.685 38.556 118.871 39.1571 118.845 39.7622C118.81 40.5601 118.422 41.2908 117.78 41.7678L54.5337 88.7648C53.3621 89.6351 51.6989 89.3921 50.8258 88.2244L3.68858 25.1339C3.32535 24.647 3.13958 24.0459 3.16591 23.4411Z" fill="#DADADA"/>
<path fill-rule="evenodd" clip-rule="evenodd" d="M113.745 38.7113C113.766 38.219 113.628 37.7445 113.346 37.3389L69.7084 -25.211C69.0026 -26.2229 67.6031 -26.4735 66.5881 -25.77L3.88254 17.7372C3.30372 18.139 2.95401 18.7725 2.92332 19.476C2.90208 19.9682 3.04027 20.4425 3.32307 20.8477L46.9597 83.3984C47.6656 84.4109 49.065 84.6612 50.0801 83.9571L112.786 40.4504C113.365 40.0489 113.714 39.4145 113.745 38.7113ZM2.59394 19.4613C2.629 18.6547 3.03035 17.9273 3.6947 17.4666L66.3997 -26.0402C67.5639 -26.8474 69.1696 -26.5599 69.9791 -25.3992L113.616 37.1509C113.941 37.6161 114.099 38.1603 114.074 38.7253C114.039 39.5323 113.638 40.2595 112.975 40.7205L50.2684 84.2277C49.1046 85.0349 47.4988 84.7474 46.6893 83.5867L3.05231 21.0363C2.72763 20.5712 2.56921 20.0269 2.59394 19.4613Z" fill="#DADADA"/>
<path fill-rule="evenodd" clip-rule="evenodd" d="M108.978 37.6744C108.998 37.226 108.879 36.7893 108.634 36.4109L68.4966 -25.5989C67.8489 -26.599 66.5058 -26.888 65.5023 -26.2425L3.33787 13.7735C2.74902 14.1532 2.3788 14.797 2.34854 15.4964C2.32905 15.9446 2.44833 16.381 2.69345 16.7594L42.8302 78.7699C43.4778 79.7697 44.8207 80.0585 45.8243 79.4126L107.989 39.3965C108.578 39.0174 108.947 38.3737 108.978 37.6744ZM2.01889 15.4819C2.0541 14.6757 2.48047 13.934 3.15908 13.4974L65.3234 -26.519C66.4793 -27.2632 68.0273 -26.9301 68.7739 -25.7771L108.911 36.2324C109.193 36.6684 109.33 37.172 109.308 37.6887C109.273 38.4945 108.847 39.2366 108.168 39.6729L46.0032 79.6893C44.8473 80.4332 43.2993 80.1007 42.553 78.948L2.41544 16.9386C2.13381 16.5021 1.9962 15.9987 2.01889 15.4819Z" fill="#DADADA"/>
<path fill-rule="evenodd" clip-rule="evenodd" d="M104.215 36.6374C104.233 36.2325 104.131 35.8329 103.923 35.4827L67.2862 -25.9866C66.696 -26.9759 65.4089 -27.3028 64.417 -26.715L2.79395 9.81078C2.18472 10.1717 1.80229 10.8096 1.77145 11.5164C1.7537 11.9218 1.85495 12.3211 2.06369 12.6719L38.7007 74.141C39.2907 75.1304 40.5775 75.4573 41.5692 74.8689L103.193 38.3433C103.802 37.9822 104.184 37.3447 104.215 36.6374ZM1.44176 11.5021C1.47754 10.6837 1.91962 9.94559 2.62471 9.5281L64.2477 -26.9978C65.3966 -27.6784 66.8865 -27.2999 67.5689 -26.1545L104.206 35.3142C104.448 35.7202 104.565 36.1823 104.544 36.6525C104.509 37.4707 104.066 38.2086 103.361 38.6268L41.7378 75.1525C40.5896 75.8327 39.0994 75.4547 38.4168 74.3094L1.77968 12.8401C1.53806 12.4346 1.42124 11.9714 1.44176 11.5021Z" fill="#DADADA"/>
<path fill-rule="evenodd" clip-rule="evenodd" d="M99.4545 35.6019C99.4704 35.2382 99.3866 34.8756 99.211 34.5539L66.0741 -26.3746C65.542 -27.353 64.3114 -27.7176 63.3299 -27.187L2.24801 5.84758C1.61726 6.189 1.22202 6.82005 1.19075 7.53619C1.17474 7.9 1.25868 8.26251 1.43382 8.58443L34.5712 69.513C35.1033 70.4912 36.3339 70.8559 37.3153 70.3253L98.3973 37.2901C99.0282 36.9489 99.4234 36.3182 99.4545 35.6019ZM0.861124 7.52208C0.896909 6.70178 1.36794 5.9497 2.09092 5.55883L63.1729 -27.4764C64.3138 -28.0932 65.7457 -27.6693 66.3645 -26.5313L99.5016 34.397C99.7052 34.7719 99.8024 35.1927 99.7845 35.6163C99.7483 36.4363 99.277 37.1887 98.555 37.5798L37.4724 70.6149C36.3315 71.2318 34.8999 70.8079 34.2808 69.6695L1.14421 8.74139C0.940404 8.36652 0.842504 7.9451 0.861124 7.52208Z" fill="#DADADA"/>
<mask id="mask1_9_4418" style="mask-type:luminance" maskUnits="userSpaceOnUse" x="0" y="-29" width="96" height="96">
<path fill-rule="evenodd" clip-rule="evenodd" d="M0.27417 -28.187H95.03V66.3092H0.27417V-28.187Z" fill="white"/>
</mask>
<g mask="url(#mask1_9_4418)">
<path fill-rule="evenodd" clip-rule="evenodd" d="M94.6977 34.5659C94.7116 34.2427 94.643 33.9174 94.4988 33.6248L64.8619 -26.7632C64.3878 -27.7304 63.2126 -28.1327 62.2427 -27.6595L1.70143 1.88523C1.05657 2.19988 0.637035 2.84009 0.605759 3.55579C0.591648 3.87932 0.659873 4.20487 0.803742 4.4977L30.4407 64.8857C30.9156 65.8526 32.0901 66.2548 33.0601 65.7813L93.6014 36.2374C94.2458 35.9224 94.6661 35.2821 94.6977 34.5659ZM0.276073 3.54148C0.312586 2.70504 0.803542 1.95689 1.5562 1.58973L62.0975 -27.9551C63.2307 -28.5077 64.6042 -28.0382 65.159 -26.9079L94.7964 33.4801C94.964 33.8221 95.0441 34.2025 95.0277 34.5806C94.991 35.4172 94.5005 36.1655 93.7467 36.5328L33.2055 66.077C32.072 66.6305 30.6991 66.1608 30.1444 65.0304L0.506932 4.6421C0.339206 4.30069 0.259489 3.9197 0.276073 3.54148Z" fill="#DADADA"/>
</g>
</g>
</svg>
