<svg width="70" height="70" viewBox="0 0 13 13" fill="none" xmlns="http://www.w3.org/2000/svg">
<rect opacity="0.1" x="0.557251" y="0.784119" width="11.492" height="11.492" rx="2.18203" fill="#161C2D"/>
<path d="M7.48733 5.49133C7.17967 5.18498 6.77774 5.0318 6.37581 5.0318V6.60286L5.26428 7.71439C5.87831 8.32841 6.872 8.32841 7.48603 7.71439C8.10005 7.10036 8.10005 6.10536 7.48733 5.49133Z" fill="#161C2D"/>
<path opacity="0.5" fill-rule="evenodd" clip-rule="evenodd" d="M3.75745 6.60281C3.75745 5.15613 4.9292 3.98438 6.37588 3.98438C7.82257 3.98438 8.99432 5.15613 8.99432 6.60281C8.99432 8.04819 7.82257 9.22125 6.37588 9.22125C4.9292 9.22125 3.75745 8.0495 3.75745 6.60281ZM4.28112 6.60288C4.28112 7.76023 5.21852 8.69763 6.37587 8.69763C7.53321 8.69763 8.47061 7.76023 8.47061 6.60288C8.47061 5.44553 7.53321 4.50813 6.37587 4.50813C5.21852 4.50813 4.28112 5.44553 4.28112 6.60288Z" fill="#161C2D"/>
</svg>
