<svg width="70" height="70" viewBox="0 0 13 13" fill="none" xmlns="http://www.w3.org/2000/svg">
<rect opacity="0.1" x="0.787476" y="0.784119" width="11.492" height="11.492" rx="2.18203" fill="#68D585"/>
<path opacity="0.5" d="M8.95777 6.45734C8.73917 7.44028 7.68257 8.18824 6.41502 8.18824C6.23531 8.18824 6.05593 8.17204 5.87903 8.14131C6.31365 8.51763 6.98653 8.70745 7.6819 8.6046L8.61261 9.06412C8.62846 9.07189 8.64566 9.07577 8.66285 9.07577C8.68342 9.07577 8.70387 9.07023 8.72197 9.05924C8.75501 9.03905 8.77524 9.00333 8.77524 8.96483V8.11846C9.06555 7.85841 9.22481 7.53047 9.22481 7.18977C9.22481 6.92928 9.13074 6.67767 8.95777 6.45734Z" fill="#68D585"/>
<path d="M6.38827 4.12982C5.06471 4.12982 3.98804 4.97643 3.98804 6.01709C3.98804 6.41708 4.14588 6.79841 4.44522 7.1228V8.2374C4.44522 8.27592 4.4658 8.31156 4.4994 8.33187C4.5178 8.34286 4.5386 8.34841 4.55952 8.34841C4.57701 8.34841 4.5945 8.34453 4.61061 8.33676L5.677 7.81887C5.9096 7.8756 6.14859 7.90435 6.38827 7.90435C7.71183 7.90435 8.7885 7.05775 8.7885 6.01709C8.7885 4.97643 7.71183 4.12982 6.38827 4.12982Z" fill="#68D585"/>
</svg>
