<svg width="70" height="70" viewBox="0 0 13 13" fill="none" xmlns="http://www.w3.org/2000/svg">
<rect opacity="0.1" x="0.787476" y="0.65387" width="11.492" height="11.492" rx="2.18203" fill="#473BF0"/>
<path fill-rule="evenodd" clip-rule="evenodd" d="M5.15161 5.26208C5.15161 4.51501 5.70779 3.70868 6.6063 3.70868C7.50481 3.70868 8.06099 4.51501 8.06099 5.26208C8.06099 6.36917 7.30588 7.05446 6.6063 7.05446C5.90672 7.05446 5.15161 6.36917 5.15161 5.26208ZM5.39933 5.38795C5.45194 6.27267 6.04957 6.81541 6.60635 6.81541C7.16313 6.81541 7.76065 6.27279 7.8135 5.38831C7.45286 5.34004 7.11586 5.18792 6.84541 4.94942C6.51131 5.24504 6.08521 5.40671 5.63305 5.40671C5.55583 5.40671 5.478 5.39919 5.39933 5.38795Z" fill="#473BF0"/>
<path opacity="0.5" d="M8.78511 7.66292L7.52462 6.909C7.2292 7.16324 6.87607 7.30306 6.53362 7.30306C6.19116 7.30306 5.83803 7.16324 5.54261 6.909L4.28213 7.66292C4.10065 7.77143 3.98792 7.96997 3.98792 8.18096V9.11566C3.98792 9.18248 4.04222 9.2365 4.10914 9.2365H6.41239V8.0281C6.41239 7.96127 6.46658 7.90726 6.53362 7.90726C6.60065 7.90726 6.65484 7.96127 6.65484 8.0281V9.2365H8.9581C9.02501 9.2365 9.07932 9.18248 9.07932 9.11566V8.18096C9.07932 7.96997 8.96658 7.77143 8.78511 7.66292Z" fill="#473BF0"/>
</svg>
